<?xml version="1.0" encoding="UTF-8" standalone="no"?>
<!DOCTYPE svg PUBLIC "-//W3C//DTD SVG 1.1//EN"
 "http://www.w3.org/Graphics/SVG/1.1/DTD/svg11.dtd">
<!-- Generated by graphviz version 2.43.0 (0)
 -->
<!-- Title: Graphical Class Hierarchy Pages: 1 -->
<svg width="271pt" height="76pt"
 viewBox="0.00 0.00 271.00 75.50" xmlns="http://www.w3.org/2000/svg" xmlns:xlink="http://www.w3.org/1999/xlink">
<g id="graph0" class="graph" transform="scale(1 1) rotate(0) translate(4 71.5)">
<title>Graphical Class Hierarchy</title>
<!-- Node0 -->
<g id="Node000000" class="node">
<title>Node0</title>
<g id="a_Node000000"><a xlink:title=" ">
<polygon fill="#e0e0e0" stroke="#999999" points="59,-45.5 0,-45.5 0,-26.5 59,-26.5 59,-45.5"/>
<text text-anchor="middle" x="29.5" y="-33.5" font-family="Helvetica,sans-Serif" font-size="10.00">std::map</text>
</a>
</g>
</g>
<!-- Node1 -->
<g id="Node000001" class="node">
<title>Node1</title>
<g id="a_Node000001"><a xlink:href="classini_1_1IniFileBase.html" target="_top" xlink:title=" ">
<polygon fill="white" stroke="#666666" points="263,-67.5 95,-67.5 95,-48.5 263,-48.5 263,-67.5"/>
<text text-anchor="middle" x="179" y="-55.5" font-family="Helvetica,sans-Serif" font-size="10.00">ini::IniFileBase&lt; Comparator &gt;</text>
</a>
</g>
</g>
<!-- Node0&#45;&gt;Node1 -->
<g id="edge1_Node000000_Node000001" class="edge">
<title>Node0&#45;&gt;Node1</title>
<g id="a_edge1_Node000000_Node000001"><a xlink:title=" ">
<path fill="none" stroke="#63b8ff" d="M69.34,-41.79C83.08,-43.84 98.92,-46.2 114.18,-48.48"/>
<polygon fill="#63b8ff" stroke="#63b8ff" points="69.7,-38.31 59.29,-40.29 68.66,-45.23 69.7,-38.31"/>
</a>
</g>
</g>
<!-- Node2 -->
<g id="Node000002" class="node">
<title>Node2</title>
<g id="a_Node000002"><a xlink:href="classini_1_1IniSectionBase.html" target="_top" xlink:title=" ">
<polygon fill="white" stroke="#666666" points="232.5,-30 125.5,-30 125.5,0 232.5,0 232.5,-30"/>
<text text-anchor="start" x="133.5" y="-18" font-family="Helvetica,sans-Serif" font-size="10.00">ini::IniSectionBase</text>
<text text-anchor="middle" x="179" y="-7" font-family="Helvetica,sans-Serif" font-size="10.00">&lt; Comparator &gt;</text>
</a>
</g>
</g>
<!-- Node0&#45;&gt;Node2 -->
<g id="edge2_Node000000_Node000002" class="edge">
<title>Node0&#45;&gt;Node2</title>
<g id="a_edge2_Node000000_Node000002"><a xlink:title=" ">
<path fill="none" stroke="#63b8ff" d="M69.48,-30.45C86.6,-28.01 106.96,-25.11 125.4,-22.49"/>
<polygon fill="#63b8ff" stroke="#63b8ff" points="68.7,-27.03 59.29,-31.9 69.68,-33.96 68.7,-27.03"/>
</a>
</g>
</g>
</g>
</svg>
