<?xml version="1.0" encoding="UTF-8" standalone="no"?>
<!DOCTYPE svg PUBLIC "-//W3C//DTD SVG 1.1//EN"
 "http://www.w3.org/Graphics/SVG/1.1/DTD/svg11.dtd">
<!-- Generated by graphviz version 2.43.0 (0)
 -->
<!-- Title: include/rz_filesystem.h Pages: 1 -->
<svg width="228pt" height="82pt"
 viewBox="0.00 0.00 228.00 82.00" xmlns="http://www.w3.org/2000/svg" xmlns:xlink="http://www.w3.org/1999/xlink">
<g id="graph0" class="graph" transform="scale(1 1) rotate(0) translate(4 78)">
<title>include/rz_filesystem.h</title>
<!-- Node1 -->
<g id="Node000001" class="node">
<title>Node1</title>
<g id="a_Node000001"><a xlink:title="CXX20 filesystem library.">
<polygon fill="#999999" stroke="#666666" points="193.5,-74 64.5,-74 64.5,-55 193.5,-55 193.5,-74"/>
<text text-anchor="middle" x="129" y="-62" font-family="Helvetica,sans-Serif" font-size="10.00">include/rz_filesystem.h</text>
</a>
</g>
</g>
<!-- Node2 -->
<g id="Node000002" class="node">
<title>Node2</title>
<g id="a_Node000002"><a xlink:href="rz__filesystem_8cpp.html" target="_top" xlink:title="CXX20 filesystem library.">
<polygon fill="white" stroke="#666666" points="140,-19 0,-19 0,0 140,0 140,-19"/>
<text text-anchor="middle" x="70" y="-7" font-family="Helvetica,sans-Serif" font-size="10.00">include/rz_filesystem.cpp</text>
</a>
</g>
</g>
<!-- Node1&#45;&gt;Node2 -->
<g id="edge1_Node000001_Node000002" class="edge">
<title>Node1&#45;&gt;Node2</title>
<g id="a_edge1_Node000001_Node000002"><a xlink:title=" ">
<path fill="none" stroke="#63b8ff" d="M111.8,-48.04C101.33,-38.64 88.35,-26.98 79.65,-19.17"/>
<polygon fill="#63b8ff" stroke="#63b8ff" points="109.74,-50.91 119.52,-54.98 114.42,-45.7 109.74,-50.91"/>
</a>
</g>
</g>
<!-- Node3 -->
<g id="Node000003" class="node">
<title>Node3</title>
<g id="a_Node000003"><a xlink:href="main_8cpp.html" target="_top" xlink:title="CXX23 webserver to check docker image content.">
<polygon fill="white" stroke="#666666" points="220,-19 158,-19 158,0 220,0 220,-19"/>
<text text-anchor="middle" x="189" y="-7" font-family="Helvetica,sans-Serif" font-size="10.00">main.cpp</text>
</a>
</g>
</g>
<!-- Node1&#45;&gt;Node3 -->
<g id="edge2_Node000001_Node000003" class="edge">
<title>Node1&#45;&gt;Node3</title>
<g id="a_edge2_Node000001_Node000003"><a xlink:title=" ">
<path fill="none" stroke="#63b8ff" d="M146.18,-48.32C156.88,-38.87 170.26,-27.06 179.18,-19.17"/>
<polygon fill="#63b8ff" stroke="#63b8ff" points="143.82,-45.74 138.64,-54.98 148.45,-50.99 143.82,-45.74"/>
</a>
</g>
</g>
</g>
</svg>
