<?xml version="1.0" encoding="UTF-8" standalone="no"?>
<!DOCTYPE svg PUBLIC "-//W3C//DTD SVG 1.1//EN"
 "http://www.w3.org/Graphics/SVG/1.1/DTD/svg11.dtd">
<!-- Generated by graphviz version 2.43.0 (0)
 -->
<!-- Title: include/rz_filesystem.cpp Pages: 1 -->
<svg width="869pt" height="137pt"
 viewBox="0.00 0.00 869.00 137.00" xmlns="http://www.w3.org/2000/svg" xmlns:xlink="http://www.w3.org/1999/xlink">
<g id="graph0" class="graph" transform="scale(1 1) rotate(0) translate(4 133)">
<title>include/rz_filesystem.cpp</title>
<!-- Node1 -->
<g id="Node000001" class="node">
<title>Node1</title>
<g id="a_Node000001"><a xlink:title="CXX20 filesystem library.">
<polygon fill="#999999" stroke="#666666" points="607,-129 467,-129 467,-110 607,-110 607,-129"/>
<text text-anchor="middle" x="537" y="-117" font-family="Helvetica,sans-Serif" font-size="10.00">include/rz_filesystem.cpp</text>
</a>
</g>
</g>
<!-- Node2 -->
<g id="Node000002" class="node">
<title>Node2</title>
<g id="a_Node000002"><a xlink:href="rz__filesystem_8h.html" target="_top" xlink:title="CXX20 filesystem library.">
<polygon fill="white" stroke="#666666" points="425.5,-74 334.5,-74 334.5,-55 425.5,-55 425.5,-74"/>
<text text-anchor="middle" x="380" y="-62" font-family="Helvetica,sans-Serif" font-size="10.00">rz_filesystem.h</text>
</a>
</g>
</g>
<!-- Node1&#45;&gt;Node2 -->
<g id="edge1_Node000001_Node000002" class="edge">
<title>Node1&#45;&gt;Node2</title>
<g id="a_edge1_Node000001_Node000002"><a xlink:title=" ">
<path fill="none" stroke="#63b8ff" d="M511.78,-109.98C485.64,-101.16 444.6,-87.31 415.27,-77.41"/>
<polygon fill="#63b8ff" stroke="#63b8ff" points="416.02,-73.96 405.42,-74.08 413.78,-80.6 416.02,-73.96"/>
</a>
</g>
</g>
<!-- Node13 -->
<g id="Node000013" class="node">
<title>Node13</title>
<g id="a_Node000013"><a xlink:href="rz__string__lib_8hpp_source.html" target="_top" xlink:title=" ">
<polygon fill="white" stroke="#666666" points="779.5,-74 682.5,-74 682.5,-55 779.5,-55 779.5,-74"/>
<text text-anchor="middle" x="731" y="-62" font-family="Helvetica,sans-Serif" font-size="10.00">rz_string_lib.hpp</text>
</a>
</g>
</g>
<!-- Node1&#45;&gt;Node13 -->
<g id="edge12_Node000001_Node000013" class="edge">
<title>Node1&#45;&gt;Node13</title>
<g id="a_edge12_Node000001_Node000013"><a xlink:title=" ">
<path fill="none" stroke="#63b8ff" d="M568.17,-109.98C601.16,-100.97 653.4,-86.7 689.77,-76.76"/>
<polygon fill="#63b8ff" stroke="#63b8ff" points="690.86,-80.09 699.59,-74.08 689.02,-73.34 690.86,-80.09"/>
</a>
</g>
</g>
<!-- Node3 -->
<g id="Node000003" class="node">
<title>Node3</title>
<g id="a_Node000003"><a xlink:title=" ">
<polygon fill="#e0e0e0" stroke="#999999" points="68,-19 0,-19 0,0 68,0 68,-19"/>
<text text-anchor="middle" x="34" y="-7" font-family="Helvetica,sans-Serif" font-size="10.00">filesystem</text>
</a>
</g>
</g>
<!-- Node2&#45;&gt;Node3 -->
<g id="edge2_Node000002_Node000003" class="edge">
<title>Node2&#45;&gt;Node3</title>
<g id="a_edge2_Node000002_Node000003"><a xlink:title=" ">
<path fill="none" stroke="#63b8ff" d="M334.46,-57.52C277.05,-49.83 175.1,-35.66 78.2,-19.14"/>
<polygon fill="#63b8ff" stroke="#63b8ff" points="78.69,-15.67 68.24,-17.43 77.5,-22.57 78.69,-15.67"/>
</a>
</g>
</g>
<!-- Node4 -->
<g id="Node000004" class="node">
<title>Node4</title>
<g id="a_Node000004"><a xlink:title=" ">
<polygon fill="#e0e0e0" stroke="#999999" points="136,-19 86,-19 86,0 136,0 136,-19"/>
<text text-anchor="middle" x="111" y="-7" font-family="Helvetica,sans-Serif" font-size="10.00">format</text>
</a>
</g>
</g>
<!-- Node2&#45;&gt;Node4 -->
<g id="edge3_Node000002_Node000004" class="edge">
<title>Node2&#45;&gt;Node4</title>
<g id="a_edge3_Node000002_Node000004"><a xlink:title=" ">
<path fill="none" stroke="#63b8ff" d="M334.35,-55.66C289.02,-47.7 217.31,-34.62 146.23,-19.17"/>
<polygon fill="#63b8ff" stroke="#63b8ff" points="146.73,-15.7 136.21,-16.98 145.23,-22.53 146.73,-15.7"/>
</a>
</g>
</g>
<!-- Node5 -->
<g id="Node000005" class="node">
<title>Node5</title>
<g id="a_Node000005"><a xlink:title=" ">
<polygon fill="#e0e0e0" stroke="#999999" points="193.5,-19 154.5,-19 154.5,0 193.5,0 193.5,-19"/>
<text text-anchor="middle" x="174" y="-7" font-family="Helvetica,sans-Serif" font-size="10.00">print</text>
</a>
</g>
</g>
<!-- Node2&#45;&gt;Node5 -->
<g id="edge4_Node000002_Node000005" class="edge">
<title>Node2&#45;&gt;Node5</title>
<g id="a_edge4_Node000002_Node000005"><a xlink:title=" ">
<path fill="none" stroke="#63b8ff" d="M343.72,-54.99C309.7,-46.89 257.19,-34.06 203.27,-19.26"/>
<polygon fill="#63b8ff" stroke="#63b8ff" points="204.12,-15.86 193.55,-16.57 202.25,-22.61 204.12,-15.86"/>
</a>
</g>
</g>
<!-- Node6 -->
<g id="Node000006" class="node">
<title>Node6</title>
<g id="a_Node000006"><a xlink:title=" ">
<polygon fill="#e0e0e0" stroke="#999999" points="266.5,-19 211.5,-19 211.5,0 266.5,0 266.5,-19"/>
<text text-anchor="middle" x="239" y="-7" font-family="Helvetica,sans-Serif" font-size="10.00">fstream</text>
</a>
</g>
</g>
<!-- Node2&#45;&gt;Node6 -->
<g id="edge5_Node000002_Node000006" class="edge">
<title>Node2&#45;&gt;Node6</title>
<g id="a_edge5_Node000002_Node000006"><a xlink:title=" ">
<path fill="none" stroke="#63b8ff" d="M357.35,-54.98C334.15,-46.27 297.88,-32.63 271.6,-22.75"/>
<polygon fill="#63b8ff" stroke="#63b8ff" points="272.66,-19.41 262.07,-19.17 270.2,-25.97 272.66,-19.41"/>
</a>
</g>
</g>
<!-- Node7 -->
<g id="Node000007" class="node">
<title>Node7</title>
<g id="a_Node000007"><a xlink:title=" ">
<polygon fill="#e0e0e0" stroke="#999999" points="717,-19 673,-19 673,0 717,0 717,-19"/>
<text text-anchor="middle" x="695" y="-7" font-family="Helvetica,sans-Serif" font-size="10.00">string</text>
</a>
</g>
</g>
<!-- Node2&#45;&gt;Node7 -->
<g id="edge6_Node000002_Node000007" class="edge">
<title>Node2&#45;&gt;Node7</title>
<g id="a_edge6_Node000002_Node000007"><a xlink:title=" ">
<path fill="none" stroke="#63b8ff" d="M425.85,-57.78C480.07,-50.68 573.19,-37.47 662.9,-18.8"/>
<polygon fill="#63b8ff" stroke="#63b8ff" points="663.63,-22.23 672.69,-16.74 662.18,-15.38 663.63,-22.23"/>
</a>
</g>
</g>
<!-- Node8 -->
<g id="Node000008" class="node">
<title>Node8</title>
<g id="a_Node000008"><a xlink:title=" ">
<polygon fill="#e0e0e0" stroke="#999999" points="331.5,-19 284.5,-19 284.5,0 331.5,0 331.5,-19"/>
<text text-anchor="middle" x="308" y="-7" font-family="Helvetica,sans-Serif" font-size="10.00">vector</text>
</a>
</g>
</g>
<!-- Node2&#45;&gt;Node8 -->
<g id="edge7_Node000002_Node000008" class="edge">
<title>Node2&#45;&gt;Node8</title>
<g id="a_edge7_Node000002_Node000008"><a xlink:title=" ">
<path fill="none" stroke="#63b8ff" d="M368.43,-54.98C357.58,-47 341.12,-34.88 328.12,-25.31"/>
<polygon fill="#63b8ff" stroke="#63b8ff" points="329.91,-22.28 319.78,-19.17 325.76,-27.92 329.91,-22.28"/>
</a>
</g>
</g>
<!-- Node9 -->
<g id="Node000009" class="node">
<title>Node9</title>
<g id="a_Node000009"><a xlink:title=" ">
<polygon fill="#e0e0e0" stroke="#999999" points="410,-19 350,-19 350,0 410,0 410,-19"/>
<text text-anchor="middle" x="380" y="-7" font-family="Helvetica,sans-Serif" font-size="10.00">iostream</text>
</a>
</g>
</g>
<!-- Node2&#45;&gt;Node9 -->
<g id="edge8_Node000002_Node000009" class="edge">
<title>Node2&#45;&gt;Node9</title>
<g id="a_edge8_Node000002_Node000009"><a xlink:title=" ">
<path fill="none" stroke="#63b8ff" d="M380,-54.75C380,-47.8 380,-37.85 380,-29.13"/>
<polygon fill="#63b8ff" stroke="#63b8ff" points="383.5,-29.09 380,-19.09 376.5,-29.09 383.5,-29.09"/>
</a>
</g>
</g>
<!-- Node10 -->
<g id="Node000010" class="node">
<title>Node10</title>
<g id="a_Node000010"><a xlink:title=" ">
<polygon fill="#e0e0e0" stroke="#999999" points="478,-19 428,-19 428,0 478,0 478,-19"/>
<text text-anchor="middle" x="453" y="-7" font-family="Helvetica,sans-Serif" font-size="10.00">chrono</text>
</a>
</g>
</g>
<!-- Node2&#45;&gt;Node10 -->
<g id="edge9_Node000002_Node000010" class="edge">
<title>Node2&#45;&gt;Node10</title>
<g id="a_edge9_Node000002_Node000010"><a xlink:title=" ">
<path fill="none" stroke="#63b8ff" d="M391.73,-54.98C402.73,-47 419.42,-34.88 432.6,-25.31"/>
<polygon fill="#63b8ff" stroke="#63b8ff" points="435.02,-27.88 441.06,-19.17 430.91,-22.21 435.02,-27.88"/>
</a>
</g>
</g>
<!-- Node11 -->
<g id="Node000011" class="node">
<title>Node11</title>
<g id="a_Node000011"><a xlink:title=" ">
<polygon fill="#e0e0e0" stroke="#999999" points="543.5,-19 496.5,-19 496.5,0 543.5,0 543.5,-19"/>
<text text-anchor="middle" x="520" y="-7" font-family="Helvetica,sans-Serif" font-size="10.00">cmath</text>
</a>
</g>
</g>
<!-- Node2&#45;&gt;Node11 -->
<g id="edge10_Node000002_Node000011" class="edge">
<title>Node2&#45;&gt;Node11</title>
<g id="a_edge10_Node000002_Node000011"><a xlink:title=" ">
<path fill="none" stroke="#63b8ff" d="M402.49,-54.98C425.52,-46.27 461.54,-32.63 487.63,-22.75"/>
<polygon fill="#63b8ff" stroke="#63b8ff" points="488.98,-25.98 497.1,-19.17 486.51,-19.44 488.98,-25.98"/>
</a>
</g>
</g>
<!-- Node12 -->
<g id="Node000012" class="node">
<title>Node12</title>
<g id="a_Node000012"><a xlink:title=" ">
<polygon fill="#e0e0e0" stroke="#999999" points="654.5,-19 561.5,-19 561.5,0 654.5,0 654.5,-19"/>
<text text-anchor="middle" x="608" y="-7" font-family="Helvetica,sans-Serif" font-size="10.00">unordered_map</text>
</a>
</g>
</g>
<!-- Node2&#45;&gt;Node12 -->
<g id="edge11_Node000002_Node000012" class="edge">
<title>Node2&#45;&gt;Node12</title>
<g id="a_edge11_Node000002_Node000012"><a xlink:title=" ">
<path fill="none" stroke="#63b8ff" d="M416.63,-54.98C455.91,-45.86 518.37,-31.33 561.19,-21.38"/>
<polygon fill="#63b8ff" stroke="#63b8ff" points="562.13,-24.76 571.08,-19.08 560.55,-17.94 562.13,-24.76"/>
</a>
</g>
</g>
<!-- Node13&#45;&gt;Node7 -->
<g id="edge13_Node000013_Node000007" class="edge">
<title>Node13&#45;&gt;Node7</title>
<g id="a_edge13_Node000013_Node000007"><a xlink:title=" ">
<path fill="none" stroke="#63b8ff" d="M725.06,-54.75C720.02,-47.34 712.66,-36.5 706.49,-27.41"/>
<polygon fill="#63b8ff" stroke="#63b8ff" points="709.35,-25.39 700.83,-19.09 703.56,-29.33 709.35,-25.39"/>
</a>
</g>
</g>
<!-- Node14 -->
<g id="Node000014" class="node">
<title>Node14</title>
<g id="a_Node000014"><a xlink:title=" ">
<polygon fill="#e0e0e0" stroke="#999999" points="799,-19 735,-19 735,0 799,0 799,-19"/>
<text text-anchor="middle" x="767" y="-7" font-family="Helvetica,sans-Serif" font-size="10.00">algorithm</text>
</a>
</g>
</g>
<!-- Node13&#45;&gt;Node14 -->
<g id="edge14_Node000013_Node000014" class="edge">
<title>Node13&#45;&gt;Node14</title>
<g id="a_edge14_Node000013_Node000014"><a xlink:title=" ">
<path fill="none" stroke="#63b8ff" d="M736.94,-54.75C741.98,-47.34 749.34,-36.5 755.51,-27.41"/>
<polygon fill="#63b8ff" stroke="#63b8ff" points="758.44,-29.33 761.17,-19.09 752.65,-25.39 758.44,-29.33"/>
</a>
</g>
</g>
<!-- Node15 -->
<g id="Node000015" class="node">
<title>Node15</title>
<g id="a_Node000015"><a xlink:title=" ">
<polygon fill="#e0e0e0" stroke="#999999" points="861,-19 817,-19 817,0 861,0 861,-19"/>
<text text-anchor="middle" x="839" y="-7" font-family="Helvetica,sans-Serif" font-size="10.00">regex</text>
</a>
</g>
</g>
<!-- Node13&#45;&gt;Node15 -->
<g id="edge15_Node000013_Node000015" class="edge">
<title>Node13&#45;&gt;Node15</title>
<g id="a_edge15_Node000013_Node000015"><a xlink:title=" ">
<path fill="none" stroke="#63b8ff" d="M748.35,-54.98C765.57,-46.54 792.2,-33.47 812.15,-23.68"/>
<polygon fill="#63b8ff" stroke="#63b8ff" points="813.9,-26.72 821.33,-19.17 810.81,-20.43 813.9,-26.72"/>
</a>
</g>
</g>
</g>
</svg>
