<?xml version="1.0" encoding="UTF-8" standalone="no"?>
<!DOCTYPE svg PUBLIC "-//W3C//DTD SVG 1.1//EN"
 "http://www.w3.org/Graphics/SVG/1.1/DTD/svg11.dtd">
<!-- Generated by graphviz version 2.43.0 (0)
 -->
<!-- Title: include/inicpp.h Pages: 1 -->
<svg width="125pt" height="137pt"
 viewBox="0.00 0.00 125.00 137.00" xmlns="http://www.w3.org/2000/svg" xmlns:xlink="http://www.w3.org/1999/xlink">
<g id="graph0" class="graph" transform="scale(1 1) rotate(0) translate(4 133)">
<title>include/inicpp.h</title>
<!-- Node1 -->
<g id="Node000001" class="node">
<title>Node1</title>
<g id="a_Node000001"><a xlink:title="A header&#45;only and easy to use Ini file parser for C++.">
<polygon fill="#999999" stroke="#666666" points="105,-129 12,-129 12,-110 105,-110 105,-129"/>
<text text-anchor="middle" x="58.5" y="-117" font-family="Helvetica,sans-Serif" font-size="10.00">include/inicpp.h</text>
</a>
</g>
</g>
<!-- Node2 -->
<g id="Node000002" class="node">
<title>Node2</title>
<g id="a_Node000002"><a xlink:href="rz__inifile_8hpp_source.html" target="_top" xlink:title=" ">
<polygon fill="white" stroke="#666666" points="117,-74 0,-74 0,-55 117,-55 117,-74"/>
<text text-anchor="middle" x="58.5" y="-62" font-family="Helvetica,sans-Serif" font-size="10.00">include/rz_inifile.hpp</text>
</a>
</g>
</g>
<!-- Node1&#45;&gt;Node2 -->
<g id="edge1_Node000001_Node000002" class="edge">
<title>Node1&#45;&gt;Node2</title>
<g id="a_edge1_Node000001_Node000002"><a xlink:title=" ">
<path fill="none" stroke="#63b8ff" d="M58.5,-99.66C58.5,-90.93 58.5,-80.99 58.5,-74.09"/>
<polygon fill="#63b8ff" stroke="#63b8ff" points="55,-99.75 58.5,-109.75 62,-99.75 55,-99.75"/>
</a>
</g>
</g>
<!-- Node3 -->
<g id="Node000003" class="node">
<title>Node3</title>
<g id="a_Node000003"><a xlink:href="rz__inifile_8cpp.html" target="_top" xlink:title="classlib for inicpp.h">
<polygon fill="white" stroke="#666666" points="116.5,-19 0.5,-19 0.5,0 116.5,0 116.5,-19"/>
<text text-anchor="middle" x="58.5" y="-7" font-family="Helvetica,sans-Serif" font-size="10.00">include/rz_inifile.cpp</text>
</a>
</g>
</g>
<!-- Node2&#45;&gt;Node3 -->
<g id="edge2_Node000002_Node000003" class="edge">
<title>Node2&#45;&gt;Node3</title>
<g id="a_edge2_Node000002_Node000003"><a xlink:title=" ">
<path fill="none" stroke="#63b8ff" d="M58.5,-44.66C58.5,-35.93 58.5,-25.99 58.5,-19.09"/>
<polygon fill="#63b8ff" stroke="#63b8ff" points="55,-44.75 58.5,-54.75 62,-44.75 55,-44.75"/>
</a>
</g>
</g>
</g>
</svg>
