<?xml version="1.0" encoding="UTF-8" standalone="no"?>
<!DOCTYPE svg PUBLIC "-//W3C//DTD SVG 1.1//EN"
 "http://www.w3.org/Graphics/SVG/1.1/DTD/svg11.dtd">
<!-- Generated by graphviz version 2.43.0 (0)
 -->
<!-- Title: main.cpp Pages: 1 -->
<svg width="1360pt" height="192pt"
 viewBox="0.00 0.00 1359.50 192.00" xmlns="http://www.w3.org/2000/svg" xmlns:xlink="http://www.w3.org/1999/xlink">
<g id="graph0" class="graph" transform="scale(1 1) rotate(0) translate(4 188)">
<title>main.cpp</title>
<!-- Node1 -->
<g id="Node000001" class="node">
<title>Node1</title>
<g id="a_Node000001"><a xlink:title="CXX23 webserver to check docker image content.">
<polygon fill="#999999" stroke="#666666" points="361.5,-184 299.5,-184 299.5,-165 361.5,-165 361.5,-184"/>
<text text-anchor="middle" x="330.5" y="-172" font-family="Helvetica,sans-Serif" font-size="10.00">main.cpp</text>
</a>
</g>
</g>
<!-- Node2 -->
<g id="Node000002" class="node">
<title>Node2</title>
<g id="a_Node000002"><a xlink:title=" ">
<polygon fill="#e0e0e0" stroke="#999999" points="112.5,-129 64.5,-129 64.5,-110 112.5,-110 112.5,-129"/>
<text text-anchor="middle" x="88.5" y="-117" font-family="Helvetica,sans-Serif" font-size="10.00">crow.h</text>
</a>
</g>
</g>
<!-- Node1&#45;&gt;Node2 -->
<g id="edge1_Node000001_Node000002" class="edge">
<title>Node1&#45;&gt;Node2</title>
<g id="a_edge1_Node000001_Node000002"><a xlink:title=" ">
<path fill="none" stroke="#63b8ff" d="M299.38,-166.77C259.37,-158.09 187.74,-142.53 126.5,-129 125.24,-128.72 123.95,-128.44 122.65,-128.15"/>
<polygon fill="#63b8ff" stroke="#63b8ff" points="123.14,-124.67 112.62,-125.92 121.62,-131.5 123.14,-124.67"/>
</a>
</g>
</g>
<!-- Node3 -->
<g id="Node000003" class="node">
<title>Node3</title>
<g id="a_Node000003"><a xlink:title=" ">
<polygon fill="#e0e0e0" stroke="#999999" points="119.5,-19 59.5,-19 59.5,0 119.5,0 119.5,-19"/>
<text text-anchor="middle" x="89.5" y="-7" font-family="Helvetica,sans-Serif" font-size="10.00">iostream</text>
</a>
</g>
</g>
<!-- Node1&#45;&gt;Node3 -->
<g id="edge2_Node000001_Node000003" class="edge">
<title>Node1&#45;&gt;Node3</title>
<g id="a_edge2_Node000001_Node000003"><a xlink:title=" ">
<path fill="none" stroke="#63b8ff" d="M309.94,-164.92C291.39,-156.8 263.69,-143.67 241.5,-129 199.16,-101 194.83,-85.82 154.5,-55 140.6,-44.37 124.36,-33.25 111.59,-24.79"/>
<polygon fill="#63b8ff" stroke="#63b8ff" points="113.26,-21.7 102.98,-19.14 109.42,-27.55 113.26,-21.7"/>
</a>
</g>
</g>
<!-- Node4 -->
<g id="Node000004" class="node">
<title>Node4</title>
<g id="a_Node000004"><a xlink:title=" ">
<polygon fill="#e0e0e0" stroke="#999999" points="288,-19 249,-19 249,0 288,0 288,-19"/>
<text text-anchor="middle" x="268.5" y="-7" font-family="Helvetica,sans-Serif" font-size="10.00">print</text>
</a>
</g>
</g>
<!-- Node1&#45;&gt;Node4 -->
<g id="edge3_Node000001_Node000004" class="edge">
<title>Node1&#45;&gt;Node4</title>
<g id="a_edge3_Node000001_Node000004"><a xlink:title=" ">
<path fill="none" stroke="#63b8ff" d="M312.62,-164.94C299.24,-157.48 281.88,-145.3 273.5,-129 257.08,-97.07 260.71,-53.65 264.69,-29.22"/>
<polygon fill="#63b8ff" stroke="#63b8ff" points="268.18,-29.62 266.53,-19.16 261.29,-28.36 268.18,-29.62"/>
</a>
</g>
</g>
<!-- Node5 -->
<g id="Node000005" class="node">
<title>Node5</title>
<g id="a_Node000005"><a xlink:title=" ">
<polygon fill="#e0e0e0" stroke="#999999" points="41,-19 0,-19 0,0 41,0 41,-19"/>
<text text-anchor="middle" x="20.5" y="-7" font-family="Helvetica,sans-Serif" font-size="10.00">tuple</text>
</a>
</g>
</g>
<!-- Node1&#45;&gt;Node5 -->
<g id="edge4_Node000001_Node000005" class="edge">
<title>Node1&#45;&gt;Node5</title>
<g id="a_edge4_Node000001_Node000005"><a xlink:title=" ">
<path fill="none" stroke="#63b8ff" d="M302.92,-164.91C278.38,-156.87 241.79,-143.88 211.5,-129 146.23,-96.94 74.78,-48.76 40.73,-24.92"/>
<polygon fill="#63b8ff" stroke="#63b8ff" points="42.72,-22.04 32.53,-19.14 38.69,-27.77 42.72,-22.04"/>
</a>
</g>
</g>
<!-- Node6 -->
<g id="Node000006" class="node">
<title>Node6</title>
<g id="a_Node000006"><a xlink:title=" ">
<polygon fill="#e0e0e0" stroke="#999999" points="231,-19 138,-19 138,0 231,0 231,-19"/>
<text text-anchor="middle" x="184.5" y="-7" font-family="Helvetica,sans-Serif" font-size="10.00">unordered_map</text>
</a>
</g>
</g>
<!-- Node1&#45;&gt;Node6 -->
<g id="edge5_Node000001_Node000006" class="edge">
<title>Node1&#45;&gt;Node6</title>
<g id="a_edge5_Node000001_Node000006"><a xlink:title=" ">
<path fill="none" stroke="#63b8ff" d="M313.47,-164.93C298.81,-156.99 277.68,-144.14 262.5,-129 231.52,-98.11 205.98,-53.03 193.25,-28.33"/>
<polygon fill="#63b8ff" stroke="#63b8ff" points="196.22,-26.45 188.59,-19.09 189.97,-29.6 196.22,-26.45"/>
</a>
</g>
</g>
<!-- Node7 -->
<g id="Node000007" class="node">
<title>Node7</title>
<g id="a_Node000007"><a xlink:title=" ">
<polygon fill="#e0e0e0" stroke="#999999" points="328.5,-129 282.5,-129 282.5,-110 328.5,-110 328.5,-129"/>
<text text-anchor="middle" x="305.5" y="-117" font-family="Helvetica,sans-Serif" font-size="10.00">cstdio</text>
</a>
</g>
</g>
<!-- Node1&#45;&gt;Node7 -->
<g id="edge6_Node000001_Node000007" class="edge">
<title>Node1&#45;&gt;Node7</title>
<g id="a_edge6_Node000001_Node000007"><a xlink:title=" ">
<path fill="none" stroke="#63b8ff" d="M326.37,-164.75C322.99,-157.57 318.08,-147.18 313.88,-138.27"/>
<polygon fill="#63b8ff" stroke="#63b8ff" points="316.98,-136.64 309.55,-129.09 310.65,-139.63 316.98,-136.64"/>
</a>
</g>
</g>
<!-- Node8 -->
<g id="Node000008" class="node">
<title>Node8</title>
<g id="a_Node000008"><a xlink:href="rz__snippets_8hpp.html" target="_top" xlink:title="CXX23 classlib with snippets.">
<polygon fill="white" stroke="#666666" points="414,-74 283,-74 283,-55 414,-55 414,-74"/>
<text text-anchor="middle" x="348.5" y="-62" font-family="Helvetica,sans-Serif" font-size="10.00">include/rz_snippets.hpp</text>
</a>
</g>
</g>
<!-- Node1&#45;&gt;Node8 -->
<g id="edge7_Node000001_Node000008" class="edge">
<title>Node1&#45;&gt;Node8</title>
<g id="a_edge7_Node000001_Node000008"><a xlink:title=" ">
<path fill="none" stroke="#63b8ff" d="M331.97,-164.66C334.89,-147.17 341.45,-107.8 345.37,-84.27"/>
<polygon fill="#63b8ff" stroke="#63b8ff" points="348.87,-84.6 347.06,-74.16 341.96,-83.45 348.87,-84.6"/>
</a>
</g>
</g>
<!-- Node11 -->
<g id="Node000011" class="node">
<title>Node11</title>
<g id="a_Node000011"><a xlink:href="rz__datetime_8hpp.html" target="_top" xlink:title="CXX20 datetime lib.">
<polygon fill="white" stroke="#666666" points="713.5,-74 579.5,-74 579.5,-55 713.5,-55 713.5,-74"/>
<text text-anchor="middle" x="646.5" y="-62" font-family="Helvetica,sans-Serif" font-size="10.00">include/rz_datetime.hpp</text>
</a>
</g>
</g>
<!-- Node1&#45;&gt;Node11 -->
<g id="edge12_Node000001_Node000011" class="edge">
<title>Node1&#45;&gt;Node11</title>
<g id="a_edge12_Node000001_Node000011"><a xlink:title=" ">
<path fill="none" stroke="#63b8ff" d="M348.14,-164.85C365.99,-156.03 394.32,-141.86 418.5,-129 433.78,-120.87 436.35,-116.22 452.5,-110 493.65,-94.16 541.97,-83.05 580.1,-75.9"/>
<polygon fill="#63b8ff" stroke="#63b8ff" points="580.85,-79.32 590.06,-74.07 579.59,-72.43 580.85,-79.32"/>
</a>
</g>
</g>
<!-- Node14 -->
<g id="Node000014" class="node">
<title>Node14</title>
<g id="a_Node000014"><a xlink:href="rz__filesystem_8h.html" target="_top" xlink:title="CXX20 filesystem library.">
<polygon fill="white" stroke="#666666" points="561,-74 432,-74 432,-55 561,-55 561,-74"/>
<text text-anchor="middle" x="496.5" y="-62" font-family="Helvetica,sans-Serif" font-size="10.00">include/rz_filesystem.h</text>
</a>
</g>
</g>
<!-- Node1&#45;&gt;Node14 -->
<g id="edge17_Node000001_Node000014" class="edge">
<title>Node1&#45;&gt;Node14</title>
<g id="a_edge17_Node000001_Node000014"><a xlink:title=" ">
<path fill="none" stroke="#63b8ff" d="M341.62,-164.89C358.06,-152.29 389.98,-128.35 418.5,-110 435.76,-98.89 455.9,-87.44 471.39,-78.93"/>
<polygon fill="#63b8ff" stroke="#63b8ff" points="473.26,-81.9 480.37,-74.05 469.91,-75.75 473.26,-81.9"/>
</a>
</g>
</g>
<!-- Node20 -->
<g id="Node000020" class="node">
<title>Node20</title>
<g id="a_Node000020"><a xlink:href="rz__inifile_8hpp_source.html" target="_top" xlink:title=" ">
<polygon fill="white" stroke="#666666" points="879,-129 762,-129 762,-110 879,-110 879,-129"/>
<text text-anchor="middle" x="820.5" y="-117" font-family="Helvetica,sans-Serif" font-size="10.00">include/rz_inifile.hpp</text>
</a>
</g>
</g>
<!-- Node1&#45;&gt;Node20 -->
<g id="edge28_Node000001_Node000020" class="edge">
<title>Node1&#45;&gt;Node20</title>
<g id="a_edge28_Node000001_Node000020"><a xlink:title=" ">
<path fill="none" stroke="#63b8ff" d="M361.52,-170.14C439.27,-161.73 643.92,-139.6 751.76,-127.93"/>
<polygon fill="#63b8ff" stroke="#63b8ff" points="752.32,-131.39 761.89,-126.84 751.57,-124.44 752.32,-131.39"/>
</a>
</g>
</g>
<!-- Node29 -->
<g id="Node000029" class="node">
<title>Node29</title>
<g id="a_Node000029"><a xlink:href="rz__config_8h_source.html" target="_top" xlink:title=" ">
<polygon fill="white" stroke="#666666" points="687,-129 580,-129 580,-110 687,-110 687,-129"/>
<text text-anchor="middle" x="633.5" y="-117" font-family="Helvetica,sans-Serif" font-size="10.00">include/rz_config.h</text>
</a>
</g>
</g>
<!-- Node1&#45;&gt;Node29 -->
<g id="edge44_Node000001_Node000029" class="edge">
<title>Node1&#45;&gt;Node29</title>
<g id="a_edge44_Node000001_Node000029"><a xlink:title=" ">
<path fill="none" stroke="#63b8ff" d="M361.5,-168.08C411.61,-159.31 511.21,-141.89 574.98,-130.74"/>
<polygon fill="#63b8ff" stroke="#63b8ff" points="575.65,-134.17 584.9,-129 574.44,-127.28 575.65,-134.17"/>
</a>
</g>
</g>
<!-- Node30 -->
<g id="Node000030" class="node">
<title>Node30</title>
<g id="a_Node000030"><a xlink:href="rz__html_8h_source.html" target="_top" xlink:title=" ">
<polygon fill="white" stroke="#666666" points="562,-129 461,-129 461,-110 562,-110 562,-129"/>
<text text-anchor="middle" x="511.5" y="-117" font-family="Helvetica,sans-Serif" font-size="10.00">include/rz_html.h</text>
</a>
</g>
</g>
<!-- Node1&#45;&gt;Node30 -->
<g id="edge45_Node000001_Node000030" class="edge">
<title>Node1&#45;&gt;Node30</title>
<g id="a_edge45_Node000001_Node000030"><a xlink:title=" ">
<path fill="none" stroke="#63b8ff" d="M359.58,-164.98C390.1,-156.05 438.26,-141.94 472.16,-132.02"/>
<polygon fill="#63b8ff" stroke="#63b8ff" points="473.58,-135.25 482.19,-129.08 471.61,-128.53 473.58,-135.25"/>
</a>
</g>
</g>
<!-- Node8&#45;&gt;Node4 -->
<g id="edge8_Node000008_Node000004" class="edge">
<title>Node8&#45;&gt;Node4</title>
<g id="a_edge8_Node000008_Node000004"><a xlink:title=" ">
<path fill="none" stroke="#63b8ff" d="M335.65,-54.98C323.36,-46.84 304.59,-34.41 290.02,-24.76"/>
<polygon fill="#63b8ff" stroke="#63b8ff" points="291.86,-21.78 281.59,-19.17 287.99,-27.61 291.86,-21.78"/>
</a>
</g>
</g>
<!-- Node8&#45;&gt;Node5 -->
<g id="edge10_Node000008_Node000005" class="edge">
<title>Node8&#45;&gt;Node5</title>
<g id="a_edge10_Node000008_Node000005"><a xlink:title=" ">
<path fill="none" stroke="#63b8ff" d="M282.96,-56.16C224.54,-49.06 136.59,-37.01 50.96,-18.83"/>
<polygon fill="#63b8ff" stroke="#63b8ff" points="51.58,-15.39 41.07,-16.7 50.11,-22.23 51.58,-15.39"/>
</a>
</g>
</g>
<!-- Node9 -->
<g id="Node000009" class="node">
<title>Node9</title>
<g id="a_Node000009"><a xlink:title=" ">
<polygon fill="#e0e0e0" stroke="#999999" points="763.5,-19 719.5,-19 719.5,0 763.5,0 763.5,-19"/>
<text text-anchor="middle" x="741.5" y="-7" font-family="Helvetica,sans-Serif" font-size="10.00">string</text>
</a>
</g>
</g>
<!-- Node8&#45;&gt;Node9 -->
<g id="edge9_Node000008_Node000009" class="edge">
<title>Node8&#45;&gt;Node9</title>
<g id="a_edge9_Node000008_Node000009"><a xlink:title=" ">
<path fill="none" stroke="#63b8ff" d="M414.27,-55.94C503.75,-45.58 657.8,-27.46 709.18,-18.85"/>
<polygon fill="#63b8ff" stroke="#63b8ff" points="710.03,-22.25 719.24,-17.02 708.78,-15.37 710.03,-22.25"/>
</a>
</g>
</g>
<!-- Node10 -->
<g id="Node000010" class="node">
<title>Node10</title>
<g id="a_Node000010"><a xlink:title=" ">
<polygon fill="#e0e0e0" stroke="#999999" points="409.5,-19 371.5,-19 371.5,0 409.5,0 409.5,-19"/>
<text text-anchor="middle" x="390.5" y="-7" font-family="Helvetica,sans-Serif" font-size="10.00">map</text>
</a>
</g>
</g>
<!-- Node8&#45;&gt;Node10 -->
<g id="edge11_Node000008_Node000010" class="edge">
<title>Node8&#45;&gt;Node10</title>
<g id="a_edge11_Node000008_Node000010"><a xlink:title=" ">
<path fill="none" stroke="#63b8ff" d="M355.44,-54.75C361.37,-47.26 370.07,-36.28 377.32,-27.13"/>
<polygon fill="#63b8ff" stroke="#63b8ff" points="380.23,-29.1 383.69,-19.09 374.74,-24.75 380.23,-29.1"/>
</a>
</g>
</g>
<!-- Node11&#45;&gt;Node4 -->
<g id="edge15_Node000011_Node000004" class="edge">
<title>Node11&#45;&gt;Node4</title>
<g id="a_edge15_Node000011_Node000004"><a xlink:title=" ">
<path fill="none" stroke="#63b8ff" d="M579.21,-55.5C492.52,-45.12 347.92,-27.49 298.12,-18.64"/>
<polygon fill="#63b8ff" stroke="#63b8ff" points="298.53,-15.15 288.05,-16.69 297.2,-22.02 298.53,-15.15"/>
</a>
</g>
</g>
<!-- Node11&#45;&gt;Node9 -->
<g id="edge16_Node000011_Node000009" class="edge">
<title>Node11&#45;&gt;Node9</title>
<g id="a_edge16_Node000011_Node000009"><a xlink:title=" ">
<path fill="none" stroke="#63b8ff" d="M661.76,-54.98C676.63,-46.69 699.48,-33.94 716.92,-24.22"/>
<polygon fill="#63b8ff" stroke="#63b8ff" points="718.93,-27.1 725.96,-19.17 715.52,-20.99 718.93,-27.1"/>
</a>
</g>
</g>
<!-- Node12 -->
<g id="Node000012" class="node">
<title>Node12</title>
<g id="a_Node000012"><a xlink:title=" ">
<polygon fill="#e0e0e0" stroke="#999999" points="631.5,-19 581.5,-19 581.5,0 631.5,0 631.5,-19"/>
<text text-anchor="middle" x="606.5" y="-7" font-family="Helvetica,sans-Serif" font-size="10.00">chrono</text>
</a>
</g>
</g>
<!-- Node11&#45;&gt;Node12 -->
<g id="edge13_Node000011_Node000012" class="edge">
<title>Node11&#45;&gt;Node12</title>
<g id="a_edge13_Node000011_Node000012"><a xlink:title=" ">
<path fill="none" stroke="#63b8ff" d="M639.89,-54.75C634.24,-47.26 625.96,-36.28 619.05,-27.13"/>
<polygon fill="#63b8ff" stroke="#63b8ff" points="621.8,-24.96 612.98,-19.09 616.21,-29.18 621.8,-24.96"/>
</a>
</g>
</g>
<!-- Node13 -->
<g id="Node000013" class="node">
<title>Node13</title>
<g id="a_Node000013"><a xlink:title=" ">
<polygon fill="#e0e0e0" stroke="#999999" points="701,-19 650,-19 650,0 701,0 701,-19"/>
<text text-anchor="middle" x="675.5" y="-7" font-family="Helvetica,sans-Serif" font-size="10.00">clocale</text>
</a>
</g>
</g>
<!-- Node11&#45;&gt;Node13 -->
<g id="edge14_Node000011_Node000013" class="edge">
<title>Node11&#45;&gt;Node13</title>
<g id="a_edge14_Node000011_Node000013"><a xlink:title=" ">
<path fill="none" stroke="#63b8ff" d="M651.29,-54.75C655.26,-47.49 661.03,-36.95 665.93,-27.98"/>
<polygon fill="#63b8ff" stroke="#63b8ff" points="669.07,-29.54 670.8,-19.09 662.93,-26.18 669.07,-29.54"/>
</a>
</g>
</g>
<!-- Node14&#45;&gt;Node3 -->
<g id="edge24_Node000014_Node000003" class="edge">
<title>Node14&#45;&gt;Node3</title>
<g id="a_edge24_Node000014_Node000003"><a xlink:title=" ">
<path fill="none" stroke="#63b8ff" d="M431.86,-55.98C334.51,-44.6 158.54,-23.84 129.5,-19 129.4,-18.98 129.3,-18.97 129.2,-18.95"/>
<polygon fill="#63b8ff" stroke="#63b8ff" points="130.05,-15.55 119.59,-17.19 128.79,-22.43 130.05,-15.55"/>
</a>
</g>
</g>
<!-- Node14&#45;&gt;Node4 -->
<g id="edge20_Node000014_Node000004" class="edge">
<title>Node14&#45;&gt;Node4</title>
<g id="a_edge20_Node000014_Node000004"><a xlink:title=" ">
<path fill="none" stroke="#63b8ff" d="M454.77,-54.99C416.5,-47.01 358.06,-34.36 298.13,-19.02"/>
<polygon fill="#63b8ff" stroke="#63b8ff" points="298.66,-15.54 288.11,-16.43 296.92,-22.32 298.66,-15.54"/>
</a>
</g>
</g>
<!-- Node14&#45;&gt;Node6 -->
<g id="edge27_Node000014_Node000006" class="edge">
<title>Node14&#45;&gt;Node6</title>
<g id="a_edge27_Node000014_Node000006"><a xlink:title=" ">
<path fill="none" stroke="#63b8ff" d="M446.37,-54.98C390.39,-45.48 299.97,-30.12 241.38,-20.16"/>
<polygon fill="#63b8ff" stroke="#63b8ff" points="241.63,-16.66 231.19,-18.43 240.46,-23.56 241.63,-16.66"/>
</a>
</g>
</g>
<!-- Node14&#45;&gt;Node9 -->
<g id="edge22_Node000014_Node000009" class="edge">
<title>Node14&#45;&gt;Node9</title>
<g id="a_edge22_Node000014_Node000009"><a xlink:title=" ">
<path fill="none" stroke="#63b8ff" d="M541.77,-54.94C583.09,-46.94 646.06,-34.26 709.43,-19.14"/>
<polygon fill="#63b8ff" stroke="#63b8ff" points="710.29,-22.54 719.19,-16.8 708.65,-15.73 710.29,-22.54"/>
</a>
</g>
</g>
<!-- Node14&#45;&gt;Node12 -->
<g id="edge25_Node000014_Node000012" class="edge">
<title>Node14&#45;&gt;Node12</title>
<g id="a_edge25_Node000014_Node000012"><a xlink:title=" ">
<path fill="none" stroke="#63b8ff" d="M514.17,-54.98C531.79,-46.5 559.08,-33.35 579.43,-23.54"/>
<polygon fill="#63b8ff" stroke="#63b8ff" points="581.02,-26.66 588.51,-19.17 577.98,-20.36 581.02,-26.66"/>
</a>
</g>
</g>
<!-- Node15 -->
<g id="Node000015" class="node">
<title>Node15</title>
<g id="a_Node000015"><a xlink:title=" ">
<polygon fill="#e0e0e0" stroke="#999999" points="495.5,-19 427.5,-19 427.5,0 495.5,0 495.5,-19"/>
<text text-anchor="middle" x="461.5" y="-7" font-family="Helvetica,sans-Serif" font-size="10.00">filesystem</text>
</a>
</g>
</g>
<!-- Node14&#45;&gt;Node15 -->
<g id="edge18_Node000014_Node000015" class="edge">
<title>Node14&#45;&gt;Node15</title>
<g id="a_edge18_Node000014_Node000015"><a xlink:title=" ">
<path fill="none" stroke="#63b8ff" d="M490.72,-54.75C485.88,-47.42 478.82,-36.73 472.86,-27.7"/>
<polygon fill="#63b8ff" stroke="#63b8ff" points="475.6,-25.5 467.17,-19.09 469.76,-29.36 475.6,-25.5"/>
</a>
</g>
</g>
<!-- Node16 -->
<g id="Node000016" class="node">
<title>Node16</title>
<g id="a_Node000016"><a xlink:title=" ">
<polygon fill="#e0e0e0" stroke="#999999" points="563.5,-19 513.5,-19 513.5,0 563.5,0 563.5,-19"/>
<text text-anchor="middle" x="538.5" y="-7" font-family="Helvetica,sans-Serif" font-size="10.00">format</text>
</a>
</g>
</g>
<!-- Node14&#45;&gt;Node16 -->
<g id="edge19_Node000014_Node000016" class="edge">
<title>Node14&#45;&gt;Node16</title>
<g id="a_edge19_Node000014_Node000016"><a xlink:title=" ">
<path fill="none" stroke="#63b8ff" d="M503.44,-54.75C509.37,-47.26 518.07,-36.28 525.32,-27.13"/>
<polygon fill="#63b8ff" stroke="#63b8ff" points="528.23,-29.1 531.69,-19.09 522.74,-24.75 528.23,-29.1"/>
</a>
</g>
</g>
<!-- Node17 -->
<g id="Node000017" class="node">
<title>Node17</title>
<g id="a_Node000017"><a xlink:title=" ">
<polygon fill="#e0e0e0" stroke="#999999" points="837,-19 782,-19 782,0 837,0 837,-19"/>
<text text-anchor="middle" x="809.5" y="-7" font-family="Helvetica,sans-Serif" font-size="10.00">fstream</text>
</a>
</g>
</g>
<!-- Node14&#45;&gt;Node17 -->
<g id="edge21_Node000014_Node000017" class="edge">
<title>Node14&#45;&gt;Node17</title>
<g id="a_edge21_Node000014_Node000017"><a xlink:title=" ">
<path fill="none" stroke="#63b8ff" d="M556.46,-55C610.21,-47.11 691.43,-34.55 771.41,-19.1"/>
<polygon fill="#63b8ff" stroke="#63b8ff" points="772.52,-22.45 781.66,-17.1 771.18,-15.58 772.52,-22.45"/>
</a>
</g>
</g>
<!-- Node18 -->
<g id="Node000018" class="node">
<title>Node18</title>
<g id="a_Node000018"><a xlink:title=" ">
<polygon fill="#e0e0e0" stroke="#999999" points="965,-19 918,-19 918,0 965,0 965,-19"/>
<text text-anchor="middle" x="941.5" y="-7" font-family="Helvetica,sans-Serif" font-size="10.00">vector</text>
</a>
</g>
</g>
<!-- Node14&#45;&gt;Node18 -->
<g id="edge23_Node000014_Node000018" class="edge">
<title>Node14&#45;&gt;Node18</title>
<g id="a_edge23_Node000014_Node000018"><a xlink:title=" ">
<path fill="none" stroke="#63b8ff" d="M561.07,-56.05C564.26,-55.69 567.42,-55.34 570.5,-55 717.43,-38.74 758.11,-45.6 907.78,-18.86"/>
<polygon fill="#63b8ff" stroke="#63b8ff" points="908.58,-22.27 917.8,-17.05 907.34,-15.38 908.58,-22.27"/>
</a>
</g>
</g>
<!-- Node19 -->
<g id="Node000019" class="node">
<title>Node19</title>
<g id="a_Node000019"><a xlink:title=" ">
<polygon fill="#e0e0e0" stroke="#999999" points="353,-19 306,-19 306,0 353,0 353,-19"/>
<text text-anchor="middle" x="329.5" y="-7" font-family="Helvetica,sans-Serif" font-size="10.00">cmath</text>
</a>
</g>
</g>
<!-- Node14&#45;&gt;Node19 -->
<g id="edge26_Node000014_Node000019" class="edge">
<title>Node14&#45;&gt;Node19</title>
<g id="a_edge26_Node000014_Node000019"><a xlink:title=" ">
<path fill="none" stroke="#63b8ff" d="M469.67,-54.98C440.55,-45.74 394.02,-30.98 362.64,-21.02"/>
<polygon fill="#63b8ff" stroke="#63b8ff" points="363.62,-17.66 353.03,-17.97 361.5,-24.33 363.62,-17.66"/>
</a>
</g>
</g>
<!-- Node20&#45;&gt;Node11 -->
<g id="edge39_Node000020_Node000011" class="edge">
<title>Node20&#45;&gt;Node11</title>
<g id="a_edge39_Node000020_Node000011"><a xlink:title=" ">
<path fill="none" stroke="#63b8ff" d="M792.54,-109.98C763.2,-101.05 716.9,-86.94 684.31,-77.02"/>
<polygon fill="#63b8ff" stroke="#63b8ff" points="685.26,-73.65 674.68,-74.08 683.22,-80.34 685.26,-73.65"/>
</a>
</g>
</g>
<!-- Node21 -->
<g id="Node000021" class="node">
<title>Node21</title>
<g id="a_Node000021"><a xlink:href="inicpp_8h.html" target="_top" xlink:title="A header&#45;only and easy to use Ini file parser for C++.">
<polygon fill="white" stroke="#666666" points="991,-74 936,-74 936,-55 991,-55 991,-74"/>
<text text-anchor="middle" x="963.5" y="-62" font-family="Helvetica,sans-Serif" font-size="10.00">inicpp.h</text>
</a>
</g>
</g>
<!-- Node20&#45;&gt;Node21 -->
<g id="edge29_Node000020_Node000021" class="edge">
<title>Node20&#45;&gt;Node21</title>
<g id="a_edge29_Node000020_Node000021"><a xlink:title=" ">
<path fill="none" stroke="#63b8ff" d="M843.48,-109.98C867,-101.27 903.79,-87.63 930.44,-77.75"/>
<polygon fill="#63b8ff" stroke="#63b8ff" points="931.95,-80.93 940.11,-74.17 929.51,-74.36 931.95,-80.93"/>
</a>
</g>
</g>
<!-- Node27 -->
<g id="Node000027" class="node">
<title>Node27</title>
<g id="a_Node000027"><a xlink:href="rz__string__lib_8hpp_source.html" target="_top" xlink:title=" ">
<polygon fill="white" stroke="#666666" points="904,-74 807,-74 807,-55 904,-55 904,-74"/>
<text text-anchor="middle" x="855.5" y="-62" font-family="Helvetica,sans-Serif" font-size="10.00">rz_string_lib.hpp</text>
</a>
</g>
</g>
<!-- Node20&#45;&gt;Node27 -->
<g id="edge40_Node000020_Node000027" class="edge">
<title>Node20&#45;&gt;Node27</title>
<g id="a_edge40_Node000020_Node000027"><a xlink:title=" ">
<path fill="none" stroke="#63b8ff" d="M826.28,-109.75C831.12,-102.42 838.18,-91.73 844.14,-82.7"/>
<polygon fill="#63b8ff" stroke="#63b8ff" points="847.24,-84.36 849.83,-74.09 841.4,-80.5 847.24,-84.36"/>
</a>
</g>
</g>
<!-- Node21&#45;&gt;Node9 -->
<g id="edge38_Node000021_Node000009" class="edge">
<title>Node21&#45;&gt;Node9</title>
<g id="a_edge38_Node000021_Node000009"><a xlink:title=" ">
<path fill="none" stroke="#63b8ff" d="M935.75,-57.27C898.69,-48.89 831.02,-33.37 773.5,-19 773.4,-18.97 773.3,-18.95 773.2,-18.92"/>
<polygon fill="#63b8ff" stroke="#63b8ff" points="774.07,-15.53 763.51,-16.44 772.33,-22.31 774.07,-15.53"/>
</a>
</g>
</g>
<!-- Node21&#45;&gt;Node10 -->
<g id="edge33_Node000021_Node000010" class="edge">
<title>Node21&#45;&gt;Node10</title>
<g id="a_edge33_Node000021_Node000010"><a xlink:title=" ">
<path fill="none" stroke="#63b8ff" d="M935.8,-58.3C928.56,-57.08 920.76,-55.88 913.5,-55 697.83,-28.89 637.2,-58.37 419.78,-18.8"/>
<polygon fill="#63b8ff" stroke="#63b8ff" points="420.11,-15.3 409.64,-16.92 418.84,-22.18 420.11,-15.3"/>
</a>
</g>
</g>
<!-- Node21&#45;&gt;Node17 -->
<g id="edge31_Node000021_Node000017" class="edge">
<title>Node21&#45;&gt;Node17</title>
<g id="a_edge31_Node000021_Node000017"><a xlink:title=" ">
<path fill="none" stroke="#63b8ff" d="M938.76,-54.98C913.13,-46.16 872.87,-32.31 844.09,-22.41"/>
<polygon fill="#63b8ff" stroke="#63b8ff" points="845.03,-19.03 834.44,-19.08 842.75,-25.65 845.03,-19.03"/>
</a>
</g>
</g>
<!-- Node21&#45;&gt;Node18 -->
<g id="edge37_Node000021_Node000018" class="edge">
<title>Node21&#45;&gt;Node18</title>
<g id="a_edge37_Node000021_Node000018"><a xlink:title=" ">
<path fill="none" stroke="#63b8ff" d="M959.87,-54.75C956.92,-47.65 952.67,-37.4 948.99,-28.56"/>
<polygon fill="#63b8ff" stroke="#63b8ff" points="952.13,-26.98 945.07,-19.09 945.67,-29.67 952.13,-26.98"/>
</a>
</g>
</g>
<!-- Node22 -->
<g id="Node000022" class="node">
<title>Node22</title>
<g id="a_Node000022"><a xlink:title=" ">
<polygon fill="#e0e0e0" stroke="#999999" points="1047.5,-19 983.5,-19 983.5,0 1047.5,0 1047.5,-19"/>
<text text-anchor="middle" x="1015.5" y="-7" font-family="Helvetica,sans-Serif" font-size="10.00">algorithm</text>
</a>
</g>
</g>
<!-- Node21&#45;&gt;Node22 -->
<g id="edge30_Node000021_Node000022" class="edge">
<title>Node21&#45;&gt;Node22</title>
<g id="a_edge30_Node000021_Node000022"><a xlink:title=" ">
<path fill="none" stroke="#63b8ff" d="M972.09,-54.75C979.66,-47.03 990.88,-35.6 1000.01,-26.28"/>
<polygon fill="#63b8ff" stroke="#63b8ff" points="1002.57,-28.68 1007.07,-19.09 997.57,-23.78 1002.57,-28.68"/>
</a>
</g>
</g>
<!-- Node23 -->
<g id="Node000023" class="node">
<title>Node23</title>
<g id="a_Node000023"><a xlink:title=" ">
<polygon fill="#e0e0e0" stroke="#999999" points="1203.5,-19 1149.5,-19 1149.5,0 1203.5,0 1203.5,-19"/>
<text text-anchor="middle" x="1176.5" y="-7" font-family="Helvetica,sans-Serif" font-size="10.00">istream</text>
</a>
</g>
</g>
<!-- Node21&#45;&gt;Node23 -->
<g id="edge32_Node000021_Node000023" class="edge">
<title>Node21&#45;&gt;Node23</title>
<g id="a_edge32_Node000021_Node000023"><a xlink:title=" ">
<path fill="none" stroke="#63b8ff" d="M991.35,-56.57C1029.27,-47.14 1097.24,-30.22 1139.44,-19.72"/>
<polygon fill="#63b8ff" stroke="#63b8ff" points="1140.46,-23.07 1149.32,-17.26 1138.77,-16.28 1140.46,-23.07"/>
</a>
</g>
</g>
<!-- Node24 -->
<g id="Node000024" class="node">
<title>Node24</title>
<g id="a_Node000024"><a xlink:title=" ">
<polygon fill="#e0e0e0" stroke="#999999" points="1277.5,-19 1221.5,-19 1221.5,0 1277.5,0 1277.5,-19"/>
<text text-anchor="middle" x="1249.5" y="-7" font-family="Helvetica,sans-Serif" font-size="10.00">assert.h</text>
</a>
</g>
</g>
<!-- Node21&#45;&gt;Node24 -->
<g id="edge34_Node000021_Node000024" class="edge">
<title>Node21&#45;&gt;Node24</title>
<g id="a_edge34_Node000021_Node000024"><a xlink:title=" ">
<path fill="none" stroke="#63b8ff" d="M991.22,-59C1035.58,-51.7 1125.47,-36.52 1211.34,-19.16"/>
<polygon fill="#63b8ff" stroke="#63b8ff" points="1212.15,-22.56 1221.25,-17.14 1210.75,-15.7 1212.15,-22.56"/>
</a>
</g>
</g>
<!-- Node25 -->
<g id="Node000025" class="node">
<title>Node25</title>
<g id="a_Node000025"><a xlink:title=" ">
<polygon fill="#e0e0e0" stroke="#999999" points="1351.5,-19 1295.5,-19 1295.5,0 1351.5,0 1351.5,-19"/>
<text text-anchor="middle" x="1323.5" y="-7" font-family="Helvetica,sans-Serif" font-size="10.00">sstream</text>
</a>
</g>
</g>
<!-- Node21&#45;&gt;Node25 -->
<g id="edge35_Node000021_Node000025" class="edge">
<title>Node21&#45;&gt;Node25</title>
<g id="a_edge35_Node000021_Node000025"><a xlink:title=" ">
<path fill="none" stroke="#63b8ff" d="M991.28,-60.52C1045.76,-54.48 1170.59,-39.77 1285.27,-19.08"/>
<polygon fill="#63b8ff" stroke="#63b8ff" points="1286.06,-22.5 1295.27,-17.26 1284.81,-15.61 1286.06,-22.5"/>
</a>
</g>
</g>
<!-- Node26 -->
<g id="Node000026" class="node">
<title>Node26</title>
<g id="a_Node000026"><a xlink:title=" ">
<polygon fill="#e0e0e0" stroke="#999999" points="1131,-19 1066,-19 1066,0 1131,0 1131,-19"/>
<text text-anchor="middle" x="1098.5" y="-7" font-family="Helvetica,sans-Serif" font-size="10.00">stdexcept</text>
</a>
</g>
</g>
<!-- Node21&#45;&gt;Node26 -->
<g id="edge36_Node000021_Node000026" class="edge">
<title>Node21&#45;&gt;Node26</title>
<g id="a_edge36_Node000021_Node000026"><a xlink:title=" ">
<path fill="none" stroke="#63b8ff" d="M985.19,-54.98C1007.3,-46.3 1041.82,-32.75 1066.95,-22.88"/>
<polygon fill="#63b8ff" stroke="#63b8ff" points="1068.39,-26.08 1076.42,-19.17 1065.83,-19.57 1068.39,-26.08"/>
</a>
</g>
</g>
<!-- Node27&#45;&gt;Node9 -->
<g id="edge41_Node000027_Node000009" class="edge">
<title>Node27&#45;&gt;Node9</title>
<g id="a_edge41_Node000027_Node000009"><a xlink:title=" ">
<path fill="none" stroke="#63b8ff" d="M837.18,-54.98C818.84,-46.46 790.39,-33.23 769.27,-23.41"/>
<polygon fill="#63b8ff" stroke="#63b8ff" points="770.69,-20.21 760.15,-19.17 767.74,-26.56 770.69,-20.21"/>
</a>
</g>
</g>
<!-- Node27&#45;&gt;Node22 -->
<g id="edge42_Node000027_Node000022" class="edge">
<title>Node27&#45;&gt;Node22</title>
<g id="a_edge42_Node000027_Node000022"><a xlink:title=" ">
<path fill="none" stroke="#63b8ff" d="M881.21,-54.98C907.95,-46.13 950.03,-32.19 979.95,-22.28"/>
<polygon fill="#63b8ff" stroke="#63b8ff" points="981.2,-25.55 989.59,-19.08 979,-18.9 981.2,-25.55"/>
</a>
</g>
</g>
<!-- Node28 -->
<g id="Node000028" class="node">
<title>Node28</title>
<g id="a_Node000028"><a xlink:title=" ">
<polygon fill="#e0e0e0" stroke="#999999" points="899.5,-19 855.5,-19 855.5,0 899.5,0 899.5,-19"/>
<text text-anchor="middle" x="877.5" y="-7" font-family="Helvetica,sans-Serif" font-size="10.00">regex</text>
</a>
</g>
</g>
<!-- Node27&#45;&gt;Node28 -->
<g id="edge43_Node000027_Node000028" class="edge">
<title>Node27&#45;&gt;Node28</title>
<g id="a_edge43_Node000027_Node000028"><a xlink:title=" ">
<path fill="none" stroke="#63b8ff" d="M859.13,-54.75C862.08,-47.65 866.33,-37.4 870.01,-28.56"/>
<polygon fill="#63b8ff" stroke="#63b8ff" points="873.33,-29.67 873.93,-19.09 866.87,-26.98 873.33,-29.67"/>
</a>
</g>
</g>
<!-- Node30&#45;&gt;Node9 -->
<g id="edge46_Node000030_Node000009" class="edge">
<title>Node30&#45;&gt;Node9</title>
<g id="a_edge46_Node000030_Node000009"><a xlink:title=" ">
<path fill="none" stroke="#63b8ff" d="M562.2,-110.58C620.8,-101.01 710.74,-84.82 722.5,-74 734.79,-62.69 739.25,-43.78 740.81,-29.53"/>
<polygon fill="#63b8ff" stroke="#63b8ff" points="744.32,-29.56 741.53,-19.34 737.34,-29.07 744.32,-29.56"/>
</a>
</g>
</g>
</g>
</svg>
