<?xml version="1.0" encoding="UTF-8" standalone="no"?>
<!DOCTYPE svg PUBLIC "-//W3C//DTD SVG 1.1//EN"
 "http://www.w3.org/Graphics/SVG/1.1/DTD/svg11.dtd">
<!-- Generated by graphviz version 2.43.0 (0)
 -->
<!-- Title: include/rz_inifile.cpp Pages: 1 -->
<svg width="890pt" height="192pt"
 viewBox="0.00 0.00 889.50 192.00" xmlns="http://www.w3.org/2000/svg" xmlns:xlink="http://www.w3.org/1999/xlink">
<g id="graph0" class="graph" transform="scale(1 1) rotate(0) translate(4 188)">
<title>include/rz_inifile.cpp</title>
<!-- Node1 -->
<g id="Node000001" class="node">
<title>Node1</title>
<g id="a_Node000001"><a xlink:title="classlib for inicpp.h">
<polygon fill="#999999" stroke="#666666" points="376.5,-184 260.5,-184 260.5,-165 376.5,-165 376.5,-184"/>
<text text-anchor="middle" x="318.5" y="-172" font-family="Helvetica,sans-Serif" font-size="10.00">include/rz_inifile.cpp</text>
</a>
</g>
</g>
<!-- Node2 -->
<g id="Node000002" class="node">
<title>Node2</title>
<g id="a_Node000002"><a xlink:title=" ">
<polygon fill="#e0e0e0" stroke="#999999" points="239.5,-19 195.5,-19 195.5,0 239.5,0 239.5,-19"/>
<text text-anchor="middle" x="217.5" y="-7" font-family="Helvetica,sans-Serif" font-size="10.00">string</text>
</a>
</g>
</g>
<!-- Node1&#45;&gt;Node2 -->
<g id="edge1_Node000001_Node000002" class="edge">
<title>Node1&#45;&gt;Node2</title>
<g id="a_edge1_Node000001_Node000002"><a xlink:title=" ">
<path fill="none" stroke="#63b8ff" d="M283.42,-164.9C264.31,-158.32 242.06,-147.2 229.5,-129 208.83,-99.04 210.91,-54.25 214.23,-29.19"/>
<polygon fill="#63b8ff" stroke="#63b8ff" points="217.71,-29.61 215.76,-19.19 210.79,-28.55 217.71,-29.61"/>
</a>
</g>
</g>
<!-- Node3 -->
<g id="Node000003" class="node">
<title>Node3</title>
<g id="a_Node000003"><a xlink:title=" ">
<polygon fill="#e0e0e0" stroke="#999999" points="385.5,-129 335.5,-129 335.5,-110 385.5,-110 385.5,-129"/>
<text text-anchor="middle" x="360.5" y="-117" font-family="Helvetica,sans-Serif" font-size="10.00">format</text>
</a>
</g>
</g>
<!-- Node1&#45;&gt;Node3 -->
<g id="edge2_Node000001_Node000003" class="edge">
<title>Node1&#45;&gt;Node3</title>
<g id="a_edge2_Node000001_Node000003"><a xlink:title=" ">
<path fill="none" stroke="#63b8ff" d="M325.44,-164.75C331.37,-157.26 340.07,-146.28 347.32,-137.13"/>
<polygon fill="#63b8ff" stroke="#63b8ff" points="350.23,-139.1 353.69,-129.09 344.74,-134.75 350.23,-139.1"/>
</a>
</g>
</g>
<!-- Node4 -->
<g id="Node000004" class="node">
<title>Node4</title>
<g id="a_Node000004"><a xlink:title=" ">
<polygon fill="#e0e0e0" stroke="#999999" points="39,-19 0,-19 0,0 39,0 39,-19"/>
<text text-anchor="middle" x="19.5" y="-7" font-family="Helvetica,sans-Serif" font-size="10.00">print</text>
</a>
</g>
</g>
<!-- Node1&#45;&gt;Node4 -->
<g id="edge3_Node000001_Node000004" class="edge">
<title>Node1&#45;&gt;Node4</title>
<g id="a_edge3_Node000001_Node000004"><a xlink:title=" ">
<path fill="none" stroke="#63b8ff" d="M285.25,-164.98C236.32,-151.36 143.49,-121.29 76.5,-74 58.23,-61.1 41.69,-41.34 31.19,-27.29"/>
<polygon fill="#63b8ff" stroke="#63b8ff" points="33.9,-25.07 25.21,-19.01 28.23,-29.17 33.9,-25.07"/>
</a>
</g>
</g>
<!-- Node5 -->
<g id="Node000005" class="node">
<title>Node5</title>
<g id="a_Node000005"><a xlink:title=" ">
<polygon fill="#e0e0e0" stroke="#999999" points="471.5,-129 403.5,-129 403.5,-110 471.5,-110 471.5,-129"/>
<text text-anchor="middle" x="437.5" y="-117" font-family="Helvetica,sans-Serif" font-size="10.00">filesystem</text>
</a>
</g>
</g>
<!-- Node1&#45;&gt;Node5 -->
<g id="edge4_Node000001_Node000005" class="edge">
<title>Node1&#45;&gt;Node5</title>
<g id="a_edge4_Node000001_Node000005"><a xlink:title=" ">
<path fill="none" stroke="#63b8ff" d="M337.62,-164.98C356.85,-156.42 386.73,-143.11 408.81,-133.28"/>
<polygon fill="#63b8ff" stroke="#63b8ff" points="410.32,-136.44 418.03,-129.17 407.47,-130.04 410.32,-136.44"/>
</a>
</g>
</g>
<!-- Node6 -->
<g id="Node000006" class="node">
<title>Node6</title>
<g id="a_Node000006"><a xlink:title=" ">
<polygon fill="#e0e0e0" stroke="#999999" points="549.5,-129 489.5,-129 489.5,-110 549.5,-110 549.5,-129"/>
<text text-anchor="middle" x="519.5" y="-117" font-family="Helvetica,sans-Serif" font-size="10.00">iostream</text>
</a>
</g>
</g>
<!-- Node1&#45;&gt;Node6 -->
<g id="edge5_Node000001_Node000006" class="edge">
<title>Node1&#45;&gt;Node6</title>
<g id="a_edge5_Node000001_Node000006"><a xlink:title=" ">
<path fill="none" stroke="#63b8ff" d="M350.79,-164.98C385.69,-155.78 441.35,-141.11 479.11,-131.15"/>
<polygon fill="#63b8ff" stroke="#63b8ff" points="480.48,-134.41 489.26,-128.47 478.7,-127.64 480.48,-134.41"/>
</a>
</g>
</g>
<!-- Node7 -->
<g id="Node000007" class="node">
<title>Node7</title>
<g id="a_Node000007"><a xlink:href="rz__inifile_8hpp_source.html" target="_top" xlink:title=" ">
<polygon fill="white" stroke="#666666" points="317,-129 238,-129 238,-110 317,-110 317,-129"/>
<text text-anchor="middle" x="277.5" y="-117" font-family="Helvetica,sans-Serif" font-size="10.00">rz_inifile.hpp</text>
</a>
</g>
</g>
<!-- Node1&#45;&gt;Node7 -->
<g id="edge6_Node000001_Node000007" class="edge">
<title>Node1&#45;&gt;Node7</title>
<g id="a_edge6_Node000001_Node000007"><a xlink:title=" ">
<path fill="none" stroke="#63b8ff" d="M311.73,-164.75C305.94,-157.26 297.44,-146.28 290.36,-137.13"/>
<polygon fill="#63b8ff" stroke="#63b8ff" points="293.03,-134.86 284.14,-129.09 287.49,-139.14 293.03,-134.86"/>
</a>
</g>
</g>
<!-- Node8 -->
<g id="Node000008" class="node">
<title>Node8</title>
<g id="a_Node000008"><a xlink:href="inicpp_8h.html" target="_top" xlink:title="A header&#45;only and easy to use Ini file parser for C++.">
<polygon fill="white" stroke="#666666" points="550,-74 495,-74 495,-55 550,-55 550,-74"/>
<text text-anchor="middle" x="522.5" y="-62" font-family="Helvetica,sans-Serif" font-size="10.00">inicpp.h</text>
</a>
</g>
</g>
<!-- Node7&#45;&gt;Node8 -->
<g id="edge7_Node000007_Node000008" class="edge">
<title>Node7&#45;&gt;Node8</title>
<g id="a_edge7_Node000007_Node000008"><a xlink:title=" ">
<path fill="none" stroke="#63b8ff" d="M316.86,-109.98C363.04,-99.99 439.07,-83.55 484.61,-73.7"/>
<polygon fill="#63b8ff" stroke="#63b8ff" points="485.63,-77.06 494.66,-71.52 484.15,-70.22 485.63,-77.06"/>
</a>
</g>
</g>
<!-- Node17 -->
<g id="Node000017" class="node">
<title>Node17</title>
<g id="a_Node000017"><a xlink:href="rz__datetime_8hpp.html" target="_top" xlink:title="CXX20 datetime lib.">
<polygon fill="white" stroke="#666666" points="181.5,-74 85.5,-74 85.5,-55 181.5,-55 181.5,-74"/>
<text text-anchor="middle" x="133.5" y="-62" font-family="Helvetica,sans-Serif" font-size="10.00">rz_datetime.hpp</text>
</a>
</g>
</g>
<!-- Node7&#45;&gt;Node17 -->
<g id="edge17_Node000007_Node000017" class="edge">
<title>Node7&#45;&gt;Node17</title>
<g id="a_edge17_Node000007_Node000017"><a xlink:title=" ">
<path fill="none" stroke="#63b8ff" d="M254.36,-109.98C230.68,-101.27 193.63,-87.63 166.79,-77.75"/>
<polygon fill="#63b8ff" stroke="#63b8ff" points="167.65,-74.34 157.06,-74.17 165.23,-80.91 167.65,-74.34"/>
</a>
</g>
</g>
<!-- Node20 -->
<g id="Node000020" class="node">
<title>Node20</title>
<g id="a_Node000020"><a xlink:href="rz__string__lib_8hpp_source.html" target="_top" xlink:title=" ">
<polygon fill="white" stroke="#666666" points="335,-74 238,-74 238,-55 335,-55 335,-74"/>
<text text-anchor="middle" x="286.5" y="-62" font-family="Helvetica,sans-Serif" font-size="10.00">rz_string_lib.hpp</text>
</a>
</g>
</g>
<!-- Node7&#45;&gt;Node20 -->
<g id="edge22_Node000007_Node000020" class="edge">
<title>Node7&#45;&gt;Node20</title>
<g id="a_edge22_Node000007_Node000020"><a xlink:title=" ">
<path fill="none" stroke="#63b8ff" d="M278.99,-109.75C280.17,-102.8 281.86,-92.85 283.34,-84.13"/>
<polygon fill="#63b8ff" stroke="#63b8ff" points="286.82,-84.53 285.04,-74.09 279.92,-83.36 286.82,-84.53"/>
</a>
</g>
</g>
<!-- Node8&#45;&gt;Node2 -->
<g id="edge16_Node000008_Node000002" class="edge">
<title>Node8&#45;&gt;Node2</title>
<g id="a_edge16_Node000008_Node000002"><a xlink:title=" ">
<path fill="none" stroke="#63b8ff" d="M494.7,-59.98C446.65,-53.69 344.8,-39.41 249.57,-19.04"/>
<polygon fill="#63b8ff" stroke="#63b8ff" points="250.3,-15.61 239.78,-16.91 248.81,-22.45 250.3,-15.61"/>
</a>
</g>
</g>
<!-- Node9 -->
<g id="Node000009" class="node">
<title>Node9</title>
<g id="a_Node000009"><a xlink:title=" ">
<polygon fill="#e0e0e0" stroke="#999999" points="383.5,-19 319.5,-19 319.5,0 383.5,0 383.5,-19"/>
<text text-anchor="middle" x="351.5" y="-7" font-family="Helvetica,sans-Serif" font-size="10.00">algorithm</text>
</a>
</g>
</g>
<!-- Node8&#45;&gt;Node9 -->
<g id="edge8_Node000008_Node000009" class="edge">
<title>Node8&#45;&gt;Node9</title>
<g id="a_edge8_Node000008_Node000009"><a xlink:title=" ">
<path fill="none" stroke="#63b8ff" d="M495.03,-54.98C466.32,-46.09 421.08,-32.07 389.08,-22.15"/>
<polygon fill="#63b8ff" stroke="#63b8ff" points="389.78,-18.7 379.19,-19.08 387.7,-25.39 389.78,-18.7"/>
</a>
</g>
</g>
<!-- Node10 -->
<g id="Node000010" class="node">
<title>Node10</title>
<g id="a_Node000010"><a xlink:title=" ">
<polygon fill="#e0e0e0" stroke="#999999" points="809,-19 754,-19 754,0 809,0 809,-19"/>
<text text-anchor="middle" x="781.5" y="-7" font-family="Helvetica,sans-Serif" font-size="10.00">fstream</text>
</a>
</g>
</g>
<!-- Node8&#45;&gt;Node10 -->
<g id="edge9_Node000008_Node000010" class="edge">
<title>Node8&#45;&gt;Node10</title>
<g id="a_edge9_Node000008_Node000010"><a xlink:title=" ">
<path fill="none" stroke="#63b8ff" d="M550.03,-58.33C590.39,-50.67 668.23,-35.65 743.5,-19.38"/>
<polygon fill="#63b8ff" stroke="#63b8ff" points="744.58,-22.73 753.61,-17.19 743.1,-15.89 744.58,-22.73"/>
</a>
</g>
</g>
<!-- Node11 -->
<g id="Node000011" class="node">
<title>Node11</title>
<g id="a_Node000011"><a xlink:title=" ">
<polygon fill="#e0e0e0" stroke="#999999" points="881.5,-19 827.5,-19 827.5,0 881.5,0 881.5,-19"/>
<text text-anchor="middle" x="854.5" y="-7" font-family="Helvetica,sans-Serif" font-size="10.00">istream</text>
</a>
</g>
</g>
<!-- Node8&#45;&gt;Node11 -->
<g id="edge10_Node000008_Node000011" class="edge">
<title>Node8&#45;&gt;Node11</title>
<g id="a_edge10_Node000008_Node000011"><a xlink:title=" ">
<path fill="none" stroke="#63b8ff" d="M550.38,-60.09C601.37,-53.69 713.25,-38.86 817.37,-19.08"/>
<polygon fill="#63b8ff" stroke="#63b8ff" points="818.26,-22.47 827.42,-17.15 816.94,-15.59 818.26,-22.47"/>
</a>
</g>
</g>
<!-- Node12 -->
<g id="Node000012" class="node">
<title>Node12</title>
<g id="a_Node000012"><a xlink:title=" ">
<polygon fill="#e0e0e0" stroke="#999999" points="439.5,-19 401.5,-19 401.5,0 439.5,0 439.5,-19"/>
<text text-anchor="middle" x="420.5" y="-7" font-family="Helvetica,sans-Serif" font-size="10.00">map</text>
</a>
</g>
</g>
<!-- Node8&#45;&gt;Node12 -->
<g id="edge11_Node000008_Node000012" class="edge">
<title>Node8&#45;&gt;Node12</title>
<g id="a_edge11_Node000008_Node000012"><a xlink:title=" ">
<path fill="none" stroke="#63b8ff" d="M506.11,-54.98C489.93,-46.57 464.93,-33.59 446.12,-23.81"/>
<polygon fill="#63b8ff" stroke="#63b8ff" points="447.67,-20.68 437.19,-19.17 444.45,-26.89 447.67,-20.68"/>
</a>
</g>
</g>
<!-- Node13 -->
<g id="Node000013" class="node">
<title>Node13</title>
<g id="a_Node000013"><a xlink:title=" ">
<polygon fill="#e0e0e0" stroke="#999999" points="513.5,-19 457.5,-19 457.5,0 513.5,0 513.5,-19"/>
<text text-anchor="middle" x="485.5" y="-7" font-family="Helvetica,sans-Serif" font-size="10.00">assert.h</text>
</a>
</g>
</g>
<!-- Node8&#45;&gt;Node13 -->
<g id="edge12_Node000008_Node000013" class="edge">
<title>Node8&#45;&gt;Node13</title>
<g id="a_edge12_Node000008_Node000013"><a xlink:title=" ">
<path fill="none" stroke="#63b8ff" d="M516.39,-54.75C511.22,-47.34 503.65,-36.5 497.31,-27.41"/>
<polygon fill="#63b8ff" stroke="#63b8ff" points="500.09,-25.29 491.5,-19.09 494.35,-29.29 500.09,-25.29"/>
</a>
</g>
</g>
<!-- Node14 -->
<g id="Node000014" class="node">
<title>Node14</title>
<g id="a_Node000014"><a xlink:title=" ">
<polygon fill="#e0e0e0" stroke="#999999" points="587.5,-19 531.5,-19 531.5,0 587.5,0 587.5,-19"/>
<text text-anchor="middle" x="559.5" y="-7" font-family="Helvetica,sans-Serif" font-size="10.00">sstream</text>
</a>
</g>
</g>
<!-- Node8&#45;&gt;Node14 -->
<g id="edge13_Node000008_Node000014" class="edge">
<title>Node8&#45;&gt;Node14</title>
<g id="a_edge13_Node000008_Node000014"><a xlink:title=" ">
<path fill="none" stroke="#63b8ff" d="M528.61,-54.75C533.78,-47.34 541.35,-36.5 547.69,-27.41"/>
<polygon fill="#63b8ff" stroke="#63b8ff" points="550.65,-29.29 553.5,-19.09 544.91,-25.29 550.65,-29.29"/>
</a>
</g>
</g>
<!-- Node15 -->
<g id="Node000015" class="node">
<title>Node15</title>
<g id="a_Node000015"><a xlink:title=" ">
<polygon fill="#e0e0e0" stroke="#999999" points="671,-19 606,-19 606,0 671,0 671,-19"/>
<text text-anchor="middle" x="638.5" y="-7" font-family="Helvetica,sans-Serif" font-size="10.00">stdexcept</text>
</a>
</g>
</g>
<!-- Node8&#45;&gt;Node15 -->
<g id="edge14_Node000008_Node000015" class="edge">
<title>Node8&#45;&gt;Node15</title>
<g id="a_edge14_Node000008_Node000015"><a xlink:title=" ">
<path fill="none" stroke="#63b8ff" d="M541.14,-54.98C559.8,-46.46 588.75,-33.23 610.24,-23.41"/>
<polygon fill="#63b8ff" stroke="#63b8ff" points="611.88,-26.51 619.52,-19.17 608.97,-20.14 611.88,-26.51"/>
</a>
</g>
</g>
<!-- Node16 -->
<g id="Node000016" class="node">
<title>Node16</title>
<g id="a_Node000016"><a xlink:title=" ">
<polygon fill="#e0e0e0" stroke="#999999" points="736,-19 689,-19 689,0 736,0 736,-19"/>
<text text-anchor="middle" x="712.5" y="-7" font-family="Helvetica,sans-Serif" font-size="10.00">vector</text>
</a>
</g>
</g>
<!-- Node8&#45;&gt;Node16 -->
<g id="edge15_Node000008_Node000016" class="edge">
<title>Node8&#45;&gt;Node16</title>
<g id="a_edge15_Node000008_Node000016"><a xlink:title=" ">
<path fill="none" stroke="#63b8ff" d="M550.13,-55.79C584.28,-46.27 642.36,-30.07 679.01,-19.84"/>
<polygon fill="#63b8ff" stroke="#63b8ff" points="680.05,-23.19 688.74,-17.13 678.17,-16.44 680.05,-23.19"/>
</a>
</g>
</g>
<!-- Node17&#45;&gt;Node2 -->
<g id="edge21_Node000017_Node000002" class="edge">
<title>Node17&#45;&gt;Node2</title>
<g id="a_edge21_Node000017_Node000002"><a xlink:title=" ">
<path fill="none" stroke="#63b8ff" d="M147,-54.98C159.9,-46.84 179.6,-34.41 194.9,-24.76"/>
<polygon fill="#63b8ff" stroke="#63b8ff" points="197.17,-27.47 203.76,-19.17 193.43,-21.55 197.17,-27.47"/>
</a>
</g>
</g>
<!-- Node17&#45;&gt;Node4 -->
<g id="edge20_Node000017_Node000004" class="edge">
<title>Node17&#45;&gt;Node4</title>
<g id="a_edge20_Node000017_Node000004"><a xlink:title=" ">
<path fill="none" stroke="#63b8ff" d="M115.18,-54.98C96.84,-46.46 68.39,-33.23 47.27,-23.41"/>
<polygon fill="#63b8ff" stroke="#63b8ff" points="48.69,-20.21 38.15,-19.17 45.74,-26.56 48.69,-20.21"/>
</a>
</g>
</g>
<!-- Node18 -->
<g id="Node000018" class="node">
<title>Node18</title>
<g id="a_Node000018"><a xlink:title=" ">
<polygon fill="#e0e0e0" stroke="#999999" points="107.5,-19 57.5,-19 57.5,0 107.5,0 107.5,-19"/>
<text text-anchor="middle" x="82.5" y="-7" font-family="Helvetica,sans-Serif" font-size="10.00">chrono</text>
</a>
</g>
</g>
<!-- Node17&#45;&gt;Node18 -->
<g id="edge18_Node000017_Node000018" class="edge">
<title>Node17&#45;&gt;Node18</title>
<g id="a_edge18_Node000017_Node000018"><a xlink:title=" ">
<path fill="none" stroke="#63b8ff" d="M125.08,-54.75C117.73,-47.11 106.87,-35.82 97.96,-26.56"/>
<polygon fill="#63b8ff" stroke="#63b8ff" points="100.22,-23.87 90.76,-19.09 95.18,-28.72 100.22,-23.87"/>
</a>
</g>
</g>
<!-- Node19 -->
<g id="Node000019" class="node">
<title>Node19</title>
<g id="a_Node000019"><a xlink:title=" ">
<polygon fill="#e0e0e0" stroke="#999999" points="177,-19 126,-19 126,0 177,0 177,-19"/>
<text text-anchor="middle" x="151.5" y="-7" font-family="Helvetica,sans-Serif" font-size="10.00">clocale</text>
</a>
</g>
</g>
<!-- Node17&#45;&gt;Node19 -->
<g id="edge19_Node000017_Node000019" class="edge">
<title>Node17&#45;&gt;Node19</title>
<g id="a_edge19_Node000017_Node000019"><a xlink:title=" ">
<path fill="none" stroke="#63b8ff" d="M136.47,-54.75C138.86,-47.72 142.29,-37.62 145.27,-28.84"/>
<polygon fill="#63b8ff" stroke="#63b8ff" points="148.68,-29.68 148.58,-19.09 142.05,-27.43 148.68,-29.68"/>
</a>
</g>
</g>
<!-- Node20&#45;&gt;Node2 -->
<g id="edge23_Node000020_Node000002" class="edge">
<title>Node20&#45;&gt;Node2</title>
<g id="a_edge23_Node000020_Node000002"><a xlink:title=" ">
<path fill="none" stroke="#63b8ff" d="M275.41,-54.98C265.01,-47 249.24,-34.88 236.78,-25.31"/>
<polygon fill="#63b8ff" stroke="#63b8ff" points="238.85,-22.49 228.79,-19.17 234.59,-28.04 238.85,-22.49"/>
</a>
</g>
</g>
<!-- Node20&#45;&gt;Node9 -->
<g id="edge24_Node000020_Node000009" class="edge">
<title>Node20&#45;&gt;Node9</title>
<g id="a_edge24_Node000020_Node000009"><a xlink:title=" ">
<path fill="none" stroke="#63b8ff" d="M296.94,-54.98C306.65,-47.07 321.32,-35.11 333,-25.58"/>
<polygon fill="#63b8ff" stroke="#63b8ff" points="335.33,-28.2 340.87,-19.17 330.9,-22.78 335.33,-28.2"/>
</a>
</g>
</g>
<!-- Node21 -->
<g id="Node000021" class="node">
<title>Node21</title>
<g id="a_Node000021"><a xlink:title=" ">
<polygon fill="#e0e0e0" stroke="#999999" points="301.5,-19 257.5,-19 257.5,0 301.5,0 301.5,-19"/>
<text text-anchor="middle" x="279.5" y="-7" font-family="Helvetica,sans-Serif" font-size="10.00">regex</text>
</a>
</g>
</g>
<!-- Node20&#45;&gt;Node21 -->
<g id="edge25_Node000020_Node000021" class="edge">
<title>Node20&#45;&gt;Node21</title>
<g id="a_edge25_Node000020_Node000021"><a xlink:title=" ">
<path fill="none" stroke="#63b8ff" d="M285.34,-54.75C284.43,-47.8 283.11,-37.85 281.96,-29.13"/>
<polygon fill="#63b8ff" stroke="#63b8ff" points="285.41,-28.54 280.63,-19.09 278.47,-29.46 285.41,-28.54"/>
</a>
</g>
</g>
</g>
</svg>
