<?xml version="1.0" encoding="UTF-8" standalone="no"?>
<!DOCTYPE svg PUBLIC "-//W3C//DTD SVG 1.1//EN"
 "http://www.w3.org/Graphics/SVG/1.1/DTD/svg11.dtd">
<!-- Generated by graphviz version 2.43.0 (0)
 -->
<!-- Title: include/rz_datetime.hpp Pages: 1 -->
<svg width="337pt" height="137pt"
 viewBox="0.00 0.00 337.00 137.00" xmlns="http://www.w3.org/2000/svg" xmlns:xlink="http://www.w3.org/1999/xlink">
<g id="graph0" class="graph" transform="scale(1 1) rotate(0) translate(4 133)">
<title>include/rz_datetime.hpp</title>
<!-- Node1 -->
<g id="Node000001" class="node">
<title>Node1</title>
<g id="a_Node000001"><a xlink:title="CXX20 datetime lib.">
<polygon fill="#999999" stroke="#666666" points="278,-129 144,-129 144,-110 278,-110 278,-129"/>
<text text-anchor="middle" x="211" y="-117" font-family="Helvetica,sans-Serif" font-size="10.00">include/rz_datetime.hpp</text>
</a>
</g>
</g>
<!-- Node2 -->
<g id="Node000002" class="node">
<title>Node2</title>
<g id="a_Node000002"><a xlink:href="rz__datetime_8cpp.html" target="_top" xlink:title="CXX20 datetime lib.">
<polygon fill="white" stroke="#666666" points="134,-74 0,-74 0,-55 134,-55 134,-74"/>
<text text-anchor="middle" x="67" y="-62" font-family="Helvetica,sans-Serif" font-size="10.00">include/rz_datetime.cpp</text>
</a>
</g>
</g>
<!-- Node1&#45;&gt;Node2 -->
<g id="edge1_Node000001_Node000002" class="edge">
<title>Node1&#45;&gt;Node2</title>
<g id="a_edge1_Node000001_Node000002"><a xlink:title=" ">
<path fill="none" stroke="#63b8ff" d="M178.18,-106.42C151.47,-96.59 114.4,-82.95 90.56,-74.17"/>
<polygon fill="#63b8ff" stroke="#63b8ff" points="177.27,-109.82 187.86,-109.98 179.69,-103.25 177.27,-109.82"/>
</a>
</g>
</g>
<!-- Node3 -->
<g id="Node000003" class="node">
<title>Node3</title>
<g id="a_Node000003"><a xlink:href="rz__inifile_8hpp_source.html" target="_top" xlink:title=" ">
<polygon fill="white" stroke="#666666" points="269.5,-74 152.5,-74 152.5,-55 269.5,-55 269.5,-74"/>
<text text-anchor="middle" x="211" y="-62" font-family="Helvetica,sans-Serif" font-size="10.00">include/rz_inifile.hpp</text>
</a>
</g>
</g>
<!-- Node1&#45;&gt;Node3 -->
<g id="edge2_Node000001_Node000003" class="edge">
<title>Node1&#45;&gt;Node3</title>
<g id="a_edge2_Node000001_Node000003"><a xlink:title=" ">
<path fill="none" stroke="#63b8ff" d="M211,-99.66C211,-90.93 211,-80.99 211,-74.09"/>
<polygon fill="#63b8ff" stroke="#63b8ff" points="207.5,-99.75 211,-109.75 214.5,-99.75 207.5,-99.75"/>
</a>
</g>
</g>
<!-- Node5 -->
<g id="Node000005" class="node">
<title>Node5</title>
<g id="a_Node000005"><a xlink:href="main_8cpp.html" target="_top" xlink:title="CXX23 webserver to check docker image content.">
<polygon fill="white" stroke="#666666" points="329,-19 267,-19 267,0 329,0 329,-19"/>
<text text-anchor="middle" x="298" y="-7" font-family="Helvetica,sans-Serif" font-size="10.00">main.cpp</text>
</a>
</g>
</g>
<!-- Node1&#45;&gt;Node5 -->
<g id="edge5_Node000001_Node000005" class="edge">
<title>Node1&#45;&gt;Node5</title>
<g id="a_edge5_Node000001_Node000005"><a xlink:title=" ">
<path fill="none" stroke="#63b8ff" d="M240.36,-105.24C253.87,-97.81 269.06,-87.32 279,-74 291.52,-57.21 295.84,-32.2 297.29,-19.14"/>
<polygon fill="#63b8ff" stroke="#63b8ff" points="238.64,-102.2 231.37,-109.9 241.86,-108.41 238.64,-102.2"/>
</a>
</g>
</g>
<!-- Node4 -->
<g id="Node000004" class="node">
<title>Node4</title>
<g id="a_Node000004"><a xlink:href="rz__inifile_8cpp.html" target="_top" xlink:title="classlib for inicpp.h">
<polygon fill="white" stroke="#666666" points="249,-19 133,-19 133,0 249,0 249,-19"/>
<text text-anchor="middle" x="191" y="-7" font-family="Helvetica,sans-Serif" font-size="10.00">include/rz_inifile.cpp</text>
</a>
</g>
</g>
<!-- Node3&#45;&gt;Node4 -->
<g id="edge3_Node000003_Node000004" class="edge">
<title>Node3&#45;&gt;Node4</title>
<g id="a_edge3_Node000003_Node000004"><a xlink:title=" ">
<path fill="none" stroke="#63b8ff" d="M204.11,-45.24C200.76,-36.37 196.9,-26.14 194.24,-19.09"/>
<polygon fill="#63b8ff" stroke="#63b8ff" points="200.89,-46.63 207.7,-54.75 207.44,-44.16 200.89,-46.63"/>
</a>
</g>
</g>
<!-- Node3&#45;&gt;Node5 -->
<g id="edge4_Node000003_Node000005" class="edge">
<title>Node3&#45;&gt;Node5</title>
<g id="a_edge4_Node000003_Node000005"><a xlink:title=" ">
<path fill="none" stroke="#63b8ff" d="M233.66,-49.7C249.51,-40.04 270.19,-27.44 283.77,-19.17"/>
<polygon fill="#63b8ff" stroke="#63b8ff" points="231.7,-46.79 224.98,-54.98 235.34,-52.77 231.7,-46.79"/>
</a>
</g>
</g>
</g>
</svg>
