<?xml version="1.0" standalone="no"?>
<!DOCTYPE svg PUBLIC "-//W3C//DTD SVG 20010904//EN"
 "http://www.w3.org/TR/2001/REC-SVG-20010904/DTD/svg10.dtd">
<svg version="1.0" xmlns="http://www.w3.org/2000/svg"
 width="100.000000pt" height="100.000000pt" viewBox="0 0 100.000000 100.000000"
 preserveAspectRatio="xMidYMid meet">

<g transform="translate(0.000000,100.000000) scale(0.100000,-0.100000)"
fill="#000000" stroke="none">
<path d="M190 940 c0 -45 4 -62 15 -66 11 -4 15 -21 15 -59 0 -34 5 -57 15
-65 8 -7 15 -29 15 -50 0 -24 5 -40 15 -44 21 -8 21 -121 0 -130 -9 -3 -15
-18 -15 -40 0 -29 -9 -44 -57 -90 l-56 -56 -69 0 c-54 0 -68 -3 -68 -15 0 -11
12 -15 45 -15 33 0 45 -4 45 -15 0 -9 -9 -15 -25 -15 -14 0 -28 -7 -31 -15 -4
-8 -12 -15 -20 -15 -8 0 -14 -7 -14 -15 0 -8 7 -15 15 -15 8 0 15 7 15 15 0
10 10 15 30 15 32 0 42 -23 14 -34 -8 -3 -12 -10 -9 -16 12 -19 51 -10 76 19
18 21 37 31 63 33 56 5 43 23 -19 26 -40 2 -55 7 -55 17 0 12 16 15 70 15 54
0 72 4 76 15 4 9 19 15 35 15 23 0 29 -4 29 -22 -1 -29 -62 -95 -91 -100 -36
-5 -36 -28 0 -28 21 0 31 5 31 15 0 30 44 14 96 -35 29 -27 60 -50 69 -50 9 0
23 -7 31 -15 18 -18 99 -20 110 -4 9 16 -15 29 -54 29 -33 0 -33 0 -30 43 3
37 6 42 28 42 17 0 26 -7 30 -24 8 -36 26 -36 34 0 5 27 8 30 22 18 10 -8 14
-23 12 -41 -3 -16 -1 -31 4 -34 13 -8 58 36 58 56 0 16 39 60 53 60 4 0 7 -7
7 -15 0 -8 7 -15 15 -15 8 0 15 5 15 10 0 6 -7 13 -15 16 -8 4 -15 10 -15 15
0 18 -40 49 -63 49 -13 0 -33 -13 -47 -30 -23 -27 -30 -29 -97 -30 -77 0 -86
7 -53 40 24 24 36 25 44 5 7 -19 45 -19 52 0 4 8 18 15 33 15 15 0 34 9 44 20
13 16 21 18 35 10 32 -18 52 -37 52 -49 0 -7 22 -11 60 -11 60 0 60 0 60 -29
0 -16 -6 -31 -15 -35 -8 -3 -15 -16 -15 -28 0 -25 -31 -58 -55 -58 -8 0 -29
-16 -48 -35 l-34 -35 -177 0 c-148 0 -178 2 -182 15 -4 10 -20 15 -50 15 -33
0 -44 4 -44 15 0 9 -12 18 -29 21 -23 5 -31 13 -33 33 -3 27 -26 38 -55 26
-14 -5 -8 -15 30 -50 25 -25 55 -45 66 -45 10 0 21 -7 25 -15 3 -10 19 -15 46
-15 27 0 43 -5 46 -15 5 -13 35 -15 183 -15 l177 0 24 30 c14 16 33 29 43 30
22 0 97 73 97 93 0 8 11 26 25 41 27 29 75 36 75 11 0 -8 7 -15 15 -15 8 0 15
7 15 15 0 8 -6 15 -14 15 -8 0 -16 7 -20 15 -3 8 -14 15 -24 15 -11 0 -25 7
-32 15 -7 8 -23 15 -36 15 -15 0 -24 6 -24 15 0 12 13 15 59 15 43 0 60 -4 65
-15 3 -8 10 -15 16 -15 18 0 11 20 -16 45 -23 22 -36 25 -99 25 -52 0 -76 -4
-85 -15 -14 -17 -37 -20 -42 -4 -3 9 -21 15 -50 18 -5 1 -8 19 -8 41 0 27 -5
43 -15 46 -8 4 -15 16 -15 28 0 12 -9 29 -20 39 -11 9 -20 29 -20 45 0 16 9
37 20 47 12 11 20 31 20 50 0 18 7 38 15 45 11 9 15 32 15 80 0 51 4 69 15 74
20 7 42 -2 49 -20 8 -21 38 -17 64 10 30 32 28 59 -8 89 -16 14 -30 30 -30 36
0 6 -9 11 -20 11 -27 0 -26 -5 16 -46 19 -20 34 -43 32 -52 -4 -22 -46 -28
-54 -8 -3 9 -17 16 -29 16 -14 0 -34 13 -49 31 -44 52 -56 35 -56 -79 0 -76
-4 -102 -15 -112 -10 -8 -15 -30 -15 -61 0 -26 -5 -51 -10 -54 -7 -4 -10 51
-10 158 0 134 3 167 15 177 21 17 19 30 -5 30 -11 0 -20 -6 -20 -14 0 -8 -7
-16 -15 -20 -12 -4 -15 -27 -15 -117 0 -93 -3 -116 -17 -132 -17 -18 -17 -19
0 -28 9 -6 17 -14 17 -19 0 -19 -22 -10 -50 22 -25 27 -30 29 -36 15 -3 -9
-12 -17 -20 -17 -11 0 -14 17 -14 68 0 55 -4 71 -20 85 -12 10 -20 29 -20 49
0 24 -11 44 -35 71 -20 20 -40 37 -45 37 -20 0 -9 -26 20 -50 23 -20 29 -33
30 -63 0 -24 5 -40 15 -43 12 -5 15 -27 15 -109 0 -120 9 -134 52 -85 l30 32
31 -30 c18 -17 41 -32 52 -34 25 -4 32 -38 11 -50 -13 -7 -16 -27 -16 -107 0
-89 -2 -99 -23 -119 -13 -12 -31 -22 -40 -22 -19 0 -23 15 -7 25 5 3 10 45 10
93 0 78 -3 89 -24 110 -31 29 -53 28 -82 -4 -20 -21 -24 -35 -24 -95 0 -65 -1
-69 -23 -69 -12 0 -31 9 -40 21 -17 19 -17 22 -3 38 9 10 16 33 16 52 1 25 8
40 30 59 24 19 30 32 30 62 0 25 -5 41 -15 44 -12 5 -15 25 -15 89 0 61 -4 86
-15 95 -8 7 -15 21 -15 31 0 10 -16 33 -35 52 -19 19 -35 44 -35 56 0 12 -6
21 -15 21 -12 0 -15 -13 -15 -60z m411 -398 c20 -23 31 -89 18 -98 -6 -3 -21
4 -35 17 -17 16 -24 33 -24 61 0 42 16 50 41 20z m-163 -51 c2 -18 -1 -38 -7
-44 -16 -16 -51 25 -51 58 0 23 4 26 28 23 23 -3 28 -8 30 -37z m-160 -134 c3
-16 -2 -18 -40 -15 -32 2 -44 8 -46 21 -3 16 2 18 40 15 32 -2 44 -8 46 -21z
m92 3 c0 -5 -4 -10 -10 -10 -5 0 -10 5 -10 10 0 6 5 10 10 10 6 0 10 -4 10
-10z m204 -16 c28 -11 18 -34 -14 -34 -30 0 -43 23 -17 33 6 3 13 6 14 6 1 1
8 -2 17 -5z m-174 -14 c0 -5 -4 -10 -10 -10 -5 0 -10 5 -10 10 0 6 5 10 10 10
6 0 10 -4 10 -10z"/>
<path d="M106 151 c-4 -7 -5 -15 -2 -18 9 -9 19 4 14 18 -4 11 -6 11 -12 0z"/>
</g>
</svg>
